<svg xmlns="http://www.w3.org/2000/svg" width="210" viewBox="0 0 210 165" style="width:210px;height:165px" preserveAspectRatio="none" height="165.6">
    <path d="M21.12 7.903l12.72.729 12.72.248 12.72-1.336L72 8.4h-.031l-.14 7.861.018 7.862.126 7.861-.25 7.862.277 7.861v.665L59.28 46.95l-12.72.519-12.72.755-12.72-.62-12.72.102h.027l-.04-7.861.084-7.862.025-7.861.138-7.862L8.4 8.4v.252z" fill="#f8f8f8" stroke="#383838" stroke-width="1.8"/>
    <path d="M18.816 22.205c-.835-.691-1.051-1.987-1.109-2.981-.072-1.325.173-2.65.663-3.888.201-.518.49-1.34 1.224-1.224.676.115 1.065.893 1.31 1.44.13.302.662.086.547-.23-.317-.836-1.037-1.858-2.016-1.858-.187 0-.389.043-.605.13-.547.23-.864.748-1.123 1.252a8.487 8.487 0 00-.662 1.959 9.325 9.325 0 00-.245 2.102c0 .634.072 1.267.23 1.872.26.98.807 2.103 1.901 2.42.202.057.389.086.59.086 1.023 0 1.945-.763 2.276-1.685.029-.058.029-.1.029-.144 0-.432-.72-.605-.893-.173-.303.821-1.239 1.627-2.117.922zm5.666-5.659c-1.685 0-2.247 1.857-2.247 3.24 0 .172.087.302.202.36-.058 1.21.13 2.462 1.195 3.038.26.144.518.202.763.202 1.555 0 2.592-2.463 2.592-3.874 0-1.526-.85-2.966-2.505-2.966zm-.807 5.587c-.705-.792-.633-2.117-.49-3.168.159-.778.519-1.555 1.297-1.555.144 0 .316.028.49.086 1.209.418 1.28 1.9.993 2.938-.173.633-.85 2.044-1.642 2.044-.216 0-.432-.1-.648-.345zm9.777-5.011c-.648-.648-1.526-.404-2.001.316a4.37 4.37 0 00-.461.98c-.303-.95-.75-1.815-1.411-1.815-.188 0-.39.058-.62.216-.46.317-.69.922-.835 1.512a143.96 143.96 0 01-.13-.921c-.057-.39-.633-.245-.633.115 0 .029.014.043.014.057.26 1.772.49 3.543.72 5.328.058.49.85.504.792 0-.172-1.512-.374-3.124.087-4.608.043-.158.086-.403.187-.532.1-.13.346-.346.533-.26.259.116.389.821.46 1.08.202.792.36 1.584.519 2.39.086.476.85.36.835-.114-.029-.908.1-1.858.49-2.693.201-.403.533-.763.936-.346.245.26.259.879.302 1.21.202 1.325.072 2.606.043 3.931-.014.26.23.418.447.418.187 0 .345-.087.374-.303.115-.749.187-1.483.187-2.232 0-.273-.014-.547-.028-.82-.087-.922-.116-2.233-.807-2.91zm3.144-.404c-.13 0-.26.015-.375.058-.633.187-1.037.864-1.325 1.411v.015a.388.388 0 00-.13.288c-.014.345-.028.705-.014 1.065-.028 1.051-.043 2.103-.072 3.14v.964c0 .735.03 1.469.173 2.203.03.202.173.274.317.274.202 0 .418-.144.446-.374.116-1.052 0-2.146 0-3.197v-.043c.144.144.317.288.504.403 1.397.893 2.708 0 3.125-1.455.087-.288.115-.59.115-.921 0-1.152-.475-2.491-1.252-3.154-.404-.345-.965-.677-1.512-.677zm.576 5.674c-.519-.072-.908-.446-1.167-.878-.216-.375-.317-.764-.374-1.167.014-.619.014-1.238.014-1.857a.399.399 0 00-.043-.188c.23-.388.533-.777.98-.792.546 0 1.108.519 1.367.965.403.735.663 1.944.432 2.75-.158.548-.547 1.268-1.21 1.167zm4.796-5.846c-1.685 0-2.246 1.857-2.246 3.24a.39.39 0 00.201.36c-.057 1.21.13 2.462 1.196 3.038.259.144.518.202.763.202 1.555 0 2.592-2.463 2.592-3.874 0-1.526-.85-2.966-2.506-2.966zm-.806 5.587c-.706-.792-.634-2.117-.49-3.168.159-.778.519-1.555 1.296-1.555.144 0 .317.028.49.086 1.21.418 1.281 1.9.993 2.938-.172.633-.85 2.044-1.641 2.044-.216 0-.432-.1-.648-.345zm6.134-5.429c-.965.058-1.498 1.498-1.685 2.29-.015.028-.015.057-.029.1a26.363 26.363 0 01-.086-1.483c0-.216-.159-.317-.317-.317-.173 0-.331.101-.331.317.028 1.843.23 3.615.705 5.415.058.187.202.273.346.273a.43.43 0 00.417-.49 10.903 10.903 0 01-.072-2.822c.072-.619.346-2.376 1.138-2.39 1.512-.058 1.008 4.579 1.109 5.5.014.231.23.375.417.375.144 0 .274-.086.317-.274a7.922 7.922 0 00.159-1.67c0-.878-.101-1.786-.23-2.606-.13-1.023-.678-2.218-1.858-2.218zm6.685 1.368c0-.691-.374-1.44-1.137-1.44-.519 0-1.051.374-1.397.706-.835.806-1.67 2.361-1.67 3.686 0 1.267.878 2.26 2.203 2.26a2.44 2.44 0 001.814-.806c.202-.23.029-.604-.245-.604a.277.277 0 00-.172.057c-.418.245-.922.461-1.383.461-.432 0-.835-.187-1.109-.677-.158-.273-.201-.619-.158-.979.144.043.288.058.446.058 1.282 0 2.808-1.397 2.808-2.722zm-1.353-.62c.82-.129.662.62.518 1.038-.245.777-1.368 1.656-2.246 1.425.173-.633.72-1.627 1.195-2.059.13-.13.331-.36.533-.403zm4.188-.748c-.965.058-1.498 1.498-1.685 2.29-.014.028-.014.057-.029.1a26.363 26.363 0 01-.086-1.483c0-.216-.158-.317-.317-.317-.173 0-.331.101-.331.317.029 1.843.23 3.615.706 5.415.057.187.201.273.345.273a.43.43 0 00.418-.49 10.903 10.903 0 01-.072-2.822c.072-.619.345-2.376 1.137-2.39 1.512-.058 1.008 4.579 1.11 5.5.014.231.23.375.417.375.144 0 .273-.086.317-.274a7.922 7.922 0 00.158-1.67c0-.878-.1-1.786-.23-2.606-.13-1.023-.677-2.218-1.858-2.218zm4.304-.691c.086-.72.202-1.455.331-2.16.043-.23-.144-.389-.331-.389-.115 0-.23.072-.26.23a36.525 36.525 0 00-.446 2.39l-1.21.174c-.186.028-.273.158-.273.302 0 .216.187.46.475.418.288-.058.59-.072.879-.101a24.6 24.6 0 00-.216 3.73c.014.863.1 1.915.878 2.462a.936.936 0 00.576.201c.447 0 .807-.345.879-.878.028-.26-.202-.418-.432-.418-.188 0-.36.101-.404.303 0 .043-.028.057-.043.057-.086 0-.273-.23-.288-.244-.1-.159-.158-.375-.201-.548-.072-.345-.087-.705-.101-1.065a28.47 28.47 0 010-2.218c.029-.46.057-.936.1-1.397.548 0 1.095.03 1.642.058.303.014.447-.202.447-.432 0-.23-.144-.475-.447-.49a9.349 9.349 0 00-1.555.015z" aria-label="Component" font-size="14.4" font-family="SS Soapy Hands"/>
    <path fill="#F8F8F8" d="M9.6 28.507v.336l12.24-.999 12.24.973 12.24.33 12.24-1.781 12.24 1.141" stroke="#383838" stroke-width="1.8"/>
    <path d="M123.84 8.234l9.84.243 9.84.083 9.84-.445 9.84.285h-.031l-.14 7.861.018 7.862.126 7.861-.25 7.862.277 7.861v.222l-9.84-.474-9.84.173-9.84.252-9.84-.207-9.84.034h.027l-.04-7.861.084-7.862.025-7.861.138-7.862L114 8.4v.084z" fill="#f8f8f8" stroke="#383838" stroke-width="1.8"/>
    <path d="M126.072 13.378c-.115 0-.23.014-.331.028-.13 0-.274.015-.418.03a6.598 6.598 0 00-.763.086c-.504.057-.994.172-1.483.288a.338.338 0 00-.245.086c-.086.072-.144.158-.13.274 0 .014.015.028.015.043-.13 1.454-.274 2.894-.288 4.363-.015.389-.015.763-.015 1.152v1.008c.015.734-.072 1.656.23 2.333.058.144.174.201.303.216.187 0 .403-.13.447-.317.201-.662.043-1.512.014-2.203a56.956 56.956 0 01-.043-2.218c-.015-.317-.015-.619-.015-.936.36-.1.735-.187 1.11-.23.215-.015.446-.043.662-.058h.302c.158 0 .331 0 .49-.072a.354.354 0 00.259-.331c0-.173-.101-.274-.245-.346-.274-.115-.62-.072-.907-.043-.245.015-.475.043-.72.072a9.867 9.867 0 00-.936.23c0-.82.014-1.655.072-2.476a11.32 11.32 0 011.195-.144l.734-.043c.274 0 .59.043.864-.015h-.014a.462.462 0 00.374-.288c0-.043.015-.072.015-.115 0-.202-.187-.317-.375-.36-.057-.014-.115-.014-.158-.014zm5.11 6.249c-.058-.835-.1-1.843-.49-2.592-.201-.374-.46-.547-.748-.547-.634 0-2.276 1.109-2.765 1.469-.288.23-.115.662.173.662a.349.349 0 00.187-.057 8.627 8.627 0 011.613-.95c.144-.073.432-.289.604-.289.375 0 .418.778.461 1.066.072.49.115.979.144 1.483-.331-.331-.792-.59-1.281-.59-1.383 0-2.621 1.526-2.621 2.865 0 .907.576 1.383 1.425 1.383.677 0 1.916-.418 2.578-.677.014.288.26.432.49.432.36 0 .432-.245.432-.547l-.015-.188v-.1l.187-.087a.356.356 0 00.202-.331c0-.245-.187-.49-.432-.446a5.58 5.58 0 01-.029-.49l-.086-.98a5.58 5.58 0 00-.029-.489zm-3.586 2.837c-.345-.216-.273-.346-.187-.706.159-.734.85-1.57 1.642-1.57.806 0 1.21 1.11 1.31 1.758-.417.158-1.857.648-2.29.648a.849.849 0 01-.475-.13zm6.886-.115c-.98-.101-.922-1.627-.778-2.319a7.308 7.308 0 01.735-1.958c.172-.302.374-.749.676-.936.62-.389.864.331.936.806.072.461.735.303.735-.13v-.057c-.115-.792-.634-1.598-1.383-1.598-.201 0-.432.072-.676.23-1.023.648-1.656 2.275-1.901 3.413a4.764 4.764 0 00-.115 1.037c0 .893.273 1.829 1.08 2.26.216.13.46.188.69.188.793 0 1.6-.59 2.089-1.138.36-.432-.26-1.065-.634-.633-.331.374-.921.892-1.454.835zm7.882-2.722c-.057-.835-.1-1.843-.49-2.592-.2-.374-.46-.547-.748-.547-.634 0-2.275 1.109-2.765 1.469-.288.23-.115.662.173.662a.349.349 0 00.187-.057 8.627 8.627 0 011.613-.95c.144-.073.432-.289.605-.289.374 0 .417.778.46 1.066.073.49.116.979.145 1.483-.332-.331-.792-.59-1.282-.59-1.382 0-2.62 1.526-2.62 2.865 0 .907.575 1.383 1.425 1.383.677 0 1.915-.418 2.577-.677.015.288.26.432.49.432.36 0 .432-.245.432-.547l-.014-.188v-.1l.187-.087a.356.356 0 00.201-.331c0-.245-.187-.49-.432-.446a5.58 5.58 0 01-.028-.49l-.087-.98a5.58 5.58 0 00-.029-.489zm-3.585 2.837c-.346-.216-.274-.346-.187-.706.158-.734.85-1.57 1.641-1.57.807 0 1.21 1.11 1.31 1.758-.417.158-1.857.648-2.289.648a.849.849 0 01-.475-.13zm9.276-5.587c-2.16-.807-4.176 1.93-4.176 4.205 0 .518.115 1.022.345 1.44.75 1.368 2.132.648 2.938-.26.173-.172.317-.36.46-.561-.028.518-.028 1.037.13 1.483.058.173.202.26.346.26a.4.4 0 00.36-.26c.274-.677.158-1.57.187-2.29l.087-2.332c.057-1.584.144-3.168.316-4.752v-.03c0-.186-.144-.273-.288-.273-.158 0-.33.101-.345.303-.115 1.022-.245 2.044-.36 3.067zm-3.27 4.78c-.431-1.727 1.067-4.564 3.068-3.873a.183.183 0 00.087.014c-.03.202-.044.404-.072.62v.014c0 .043 0 .086-.015.13-.043.417-.072.835-.1 1.238-.116.403-.317.778-.562 1.152-.303.46-.663.922-1.123 1.253-.62.446-1.095.158-1.282-.547zm9.439-3.585c0-.691-.375-1.44-1.138-1.44-.518 0-1.051.374-1.397.706-.835.806-1.67 2.361-1.67 3.686 0 1.267.878 2.26 2.203 2.26a2.44 2.44 0 001.814-.806c.202-.23.03-.604-.244-.604a.277.277 0 00-.173.057c-.418.245-.922.461-1.383.461-.432 0-.835-.187-1.108-.677-.159-.273-.202-.619-.159-.979.144.043.288.058.447.058 1.281 0 2.808-1.397 2.808-2.722zm-1.354-.62c.82-.129.662.62.518 1.038-.244.777-1.368 1.656-2.246 1.425.173-.633.72-1.627 1.195-2.059.13-.13.331-.36.533-.403z" aria-label="Facade" font-size="14.4" font-family="SS Soapy Hands"/>
    <path fill="#F8F8F8" d="M115.2 28.507v.112l9.36-.333 9.36.324 9.36.11 9.36-.593 9.36.38" stroke="#383838" stroke-width="1.8"/>
    <path d="M78.72 119.834l10.32.243 10.32.083 10.32-.445L120 120h-.031l-.14 7.861.018 7.862.126 7.861-.25 7.862.277 7.861v.222l-10.32-.474-10.32.173-10.32.252-10.32-.207-10.32.034h.027l-.04-7.861.084-7.862.025-7.861.138-7.862L68.4 120v.084z" fill="#f8f8f8" stroke="#383838" stroke-width="1.8"/>
    <path d="M81.178 132.538c-.173-.792-.332-1.599-.504-2.39-.346-1.542-.663-3.097-1.08-4.623.014-.187-.144-.288-.317-.288-.159 0-.317.072-.375.23a46.171 46.171 0 00-1.324 4.58c-.332 1.511-.72 3.081-.778 4.622v.014c0 .159.144.23.288.23.13 0 .26-.057.302-.187.202-.705.39-1.065.548-1.785.82-.101 1.483-.245 2.29-.375 0 .03 0 .044.014.072.086.39.158.72.244 1.124.087.36.245.777.504 1.065.116.115.461.043.504-.1.03-.101.044-.202.044-.303 0-.26-.072-.518-.13-.749-.072-.389-.158-.763-.23-1.137zm-2.636-2.405c.274-1.109.404-1.901.692-3.01.187 1.152.23 1.7.46 2.851.13.576.274 1.34.375 1.944-.763.03-1.195.044-1.944.188.144-.692.259-1.296.417-1.973zm7.802-1.656c-2.16-.807-4.176 1.93-4.176 4.205 0 .518.116 1.022.346 1.44.749 1.368 2.131.648 2.938-.26a4.39 4.39 0 00.46-.561c-.028.518-.028 1.037.13 1.483.058.173.202.26.346.26a.4.4 0 00.36-.26c.273-.677.158-1.57.187-2.29l.086-2.332c.058-1.584.144-3.168.317-4.752v-.03c0-.186-.144-.273-.288-.273-.158 0-.331.101-.346.303-.115 1.022-.244 2.044-.36 3.067zm-3.268 4.78c-.432-1.727 1.065-4.564 3.067-3.873a.183.183 0 00.086.014c-.029.202-.043.404-.072.62v.014c0 .043 0 .086-.014.13-.043.417-.072.835-.101 1.238-.115.403-.317.778-.562 1.152-.302.46-.662.922-1.123 1.253-.619.446-1.094.158-1.281-.547zm9.649-2.03c-.057-.835-.1-1.843-.49-2.592-.201-.374-.46-.547-.748-.547-.634 0-2.275 1.109-2.765 1.469-.288.23-.115.662.173.662a.349.349 0 00.187-.057 8.627 8.627 0 011.613-.95c.144-.073.432-.289.605-.289.374 0 .417.778.46 1.066.072.49.116.979.144 1.483-.33-.331-.792-.59-1.281-.59-1.383 0-2.621 1.526-2.621 2.865 0 .907.576 1.383 1.426 1.383.676 0 1.915-.418 2.577-.677.015.288.26.432.49.432.36 0 .432-.245.432-.547l-.015-.188v-.1l.188-.087a.356.356 0 00.201-.331c0-.245-.187-.49-.432-.446a5.58 5.58 0 01-.029-.49l-.086-.98a5.58 5.58 0 00-.029-.489zm-3.585 2.837c-.346-.216-.274-.346-.188-.706.159-.734.85-1.57 1.642-1.57.806 0 1.21 1.11 1.31 1.758-.417.158-1.857.648-2.29.648a.849.849 0 01-.474-.13zm6.708-5.746c-.13 0-.26.015-.374.058-.634.187-1.037.864-1.325 1.411v.015a.388.388 0 00-.13.288c-.014.345-.029.705-.014 1.065-.029 1.051-.043 2.103-.072 3.14v.964c0 .735.029 1.469.173 2.203.028.202.172.274.316.274.202 0 .418-.144.447-.374.115-1.052 0-2.146 0-3.197v-.043c.144.144.317.288.504.403 1.397.893 2.707 0 3.125-1.455.086-.288.115-.59.115-.921 0-1.152-.475-2.491-1.253-3.154-.403-.345-.965-.677-1.512-.677zm.576 5.674c-.518-.072-.907-.446-1.166-.878-.216-.375-.317-.764-.375-1.167.015-.619.015-1.238.015-1.857a.399.399 0 00-.044-.188c.23-.388.533-.777.98-.792.547 0 1.108.519 1.368.965.403.735.662 1.944.432 2.75-.159.548-.548 1.268-1.21 1.167zm4.546-6.379c.086-.72.202-1.455.331-2.16.043-.23-.144-.389-.331-.389-.115 0-.23.072-.26.23a36.525 36.525 0 00-.446 2.39l-1.21.174c-.186.028-.273.158-.273.302 0 .216.187.46.475.418.288-.058.59-.072.879-.101a24.6 24.6 0 00-.216 3.73c.014.863.1 1.915.878 2.462a.936.936 0 00.576.201c.447 0 .807-.345.879-.878.028-.26-.202-.418-.432-.418-.188 0-.36.101-.404.303 0 .043-.028.057-.043.057-.086 0-.273-.23-.288-.244-.1-.159-.158-.375-.201-.548-.072-.345-.087-.705-.101-1.065a28.47 28.47 0 010-2.218c.029-.46.057-.936.1-1.397.548 0 1.095.03 1.642.058.303.014.447-.202.447-.432 0-.23-.144-.475-.447-.49a9.349 9.349 0 00-1.555.015zm5.852 2.059c0-.691-.374-1.44-1.138-1.44-.518 0-1.05.374-1.396.706-.836.806-1.67 2.361-1.67 3.686 0 1.267.878 2.26 2.202 2.26a2.44 2.44 0 001.815-.806c.201-.23.029-.604-.245-.604a.277.277 0 00-.173.057c-.417.245-.921.461-1.382.461-.432 0-.835-.187-1.109-.677-.158-.273-.202-.619-.158-.979.144.043.288.058.446.058 1.282 0 2.808-1.397 2.808-2.722zm-1.354-.62c.821-.129.663.62.519 1.038-.245.777-1.368 1.656-2.247 1.425.173-.633.72-1.627 1.196-2.059.13-.13.33-.36.532-.403zm2.876.39a.11.11 0 00-.029.057c0-.36.015-.734.029-1.109.014-.244-.173-.36-.36-.374a.395.395 0 00-.403.374 60.585 60.585 0 00-.101 3.615c0 .835.014 1.656.043 2.491 0 .26.202.389.418.389.201 0 .403-.13.389-.389-.015-.374-.03-.734-.03-1.109.015-.907.404-4.377 1.585-4.377.158 0 .331.072.533.244a.39.39 0 00.244.101.381.381 0 00.375-.374c0-.418-.706-.763-1.066-.763-.648 0-1.31.576-1.627 1.224z" aria-label="Adapter" font-size="14.4" font-family="SS Soapy Hands"/>
    <path fill="#F8F8F8" d="M69.6 140.107v.112l9.84-.333 9.84.324 9.84.11 9.84-.593 9.84.38" stroke="#383838" stroke-width="1.8"/>
    <path d="M170.76 119.834l8.16.243 8.16.083 8.16-.445 8.16.285h-.031l-.14 7.861.018 7.862.126 7.861-.25 7.862.277 7.861v.222l-8.16-.474-8.16.173-8.16.252-8.16-.207-8.16.034h.027l-.04-7.861.084-7.862.025-7.861.138-7.862L162.6 120v.084z" fill="#f8f8f8" stroke="#383838" stroke-width="1.8"/>
    <path d="M173.405 125.74c.82-.244 1.497.116 1.757.865.072.23.676.13.69-.101 0-.014 0-.029-.014-.043-.316-.907-1.08-1.426-2.044-1.426a2.7 2.7 0 00-.576.058c-1.181.245-2.146 1.123-2.002 2.246.144 1.195 1.21 2.117 2.016 2.995.72.778 2.06 2.19 1.282 3.255-.317.446-.994.576-1.541.432-.576-.173-.922-.648-1.239-1.08-.172-.26-.72-.058-.734.216 0 .014.014.029.014.057.274.893 1.124 1.541 2.16 1.656.101.015.202.015.288.015 1.08 0 2.088-.634 2.232-1.642.173-1.195-.662-2.232-1.454-3.11-.792-.85-2.131-1.843-2.146-3.039-.014-.705.605-1.152 1.31-1.353zm4.975 1.873c.087-.72.202-1.455.331-2.16.044-.23-.144-.389-.33-.389-.116 0-.231.072-.26.23a36.525 36.525 0 00-.446 2.39l-1.21.174c-.187.028-.274.158-.274.302 0 .216.188.46.476.418.288-.058.59-.072.878-.101a24.6 24.6 0 00-.216 3.73c.014.863.1 1.915.878 2.462a.936.936 0 00.576.201c.447 0 .807-.345.879-.878.029-.26-.202-.418-.432-.418-.187 0-.36.101-.403.303 0 .043-.03.057-.044.057-.086 0-.273-.23-.288-.244-.1-.159-.158-.375-.201-.548-.072-.345-.087-.705-.101-1.065a28.47 28.47 0 010-2.218c.029-.46.058-.936.1-1.397.548 0 1.095.03 1.642.058.303.014.447-.202.447-.432 0-.23-.144-.475-.447-.49a9.349 9.349 0 00-1.555.015zm4.743.533c-1.685 0-2.246 1.857-2.246 3.24a.39.39 0 00.201.36c-.057 1.21.13 2.462 1.195 3.038.26.144.519.202.764.202 1.555 0 2.592-2.463 2.592-3.874 0-1.526-.85-2.966-2.506-2.966zm-.806 5.587c-.706-.792-.634-2.117-.49-3.168.158-.778.518-1.555 1.296-1.555.144 0 .317.028.49.086 1.21.418 1.281 1.9.993 2.938-.173.633-.85 2.044-1.641 2.044-.216 0-.432-.1-.648-.345zm5.192-4.291a.11.11 0 00-.029.057c0-.36.014-.734.029-1.109.014-.244-.173-.36-.36-.374a.395.395 0 00-.403.374 60.585 60.585 0 00-.101 3.615c0 .835.014 1.656.043 2.491 0 .26.202.389.418.389.201 0 .403-.13.388-.389-.014-.374-.028-.734-.028-1.109.014-.907.403-4.377 1.584-4.377.158 0 .33.072.532.244a.39.39 0 00.245.101.381.381 0 00.375-.374c0-.418-.706-.763-1.066-.763-.648 0-1.31.576-1.627 1.224zm6.915.23c0-.691-.375-1.44-1.138-1.44-.518 0-1.051.374-1.397.706-.835.806-1.67 2.361-1.67 3.686 0 1.267.878 2.26 2.203 2.26a2.44 2.44 0 001.814-.806c.202-.23.03-.604-.244-.604a.277.277 0 00-.173.057c-.418.245-.922.461-1.383.461-.432 0-.835-.187-1.108-.677-.159-.273-.202-.619-.159-.979.144.043.288.058.447.058 1.281 0 2.808-1.397 2.808-2.722zm-1.354-.62c.82-.129.662.62.518 1.038-.244.777-1.368 1.656-2.246 1.425.173-.633.72-1.627 1.195-2.059.13-.13.331-.36.533-.403z" aria-label="Store" font-size="14.4" font-family="SS Soapy Hands"/>
    <path fill="#F8F8F8" d="M163.8 140.107v.112l7.68-.333 7.68.324 7.68.11 7.68-.593 7.68.38" stroke="#383838" stroke-width="1.8"/>
    <path fill="none" d="M72.108 28.2v.112l7.078-.333 7.077.324 7.078.11 7.077-.594 7.078.381" stroke="#383838" stroke-width="1.2"/>
    <path d="M111.437 27.089l-2.062-.738-2.126-.885-2.34-1.367-2.045-.699-.022-.022.861.861.972.972 1.05 1.05.783.784 1.156 1.155.157.157-1.295.625-.838 1.082-.782 1.138-1.106.814-.936.984.011.025 2.144-.997 2.194-.883 2.17-.938 2.216-.833 2.065-1.174.034.077z" fill="#383838" stroke="#383838" stroke-width="1.2"/>
    <path fill="none" d="M130.872 48.42l.311.127-5.363 10.537-3.537 11.28-4.133 11.039-6.087 10.243-3.496 11.297-4.323 10.961" stroke="#383838" stroke-width="1.2"/>
    <path d="M103.431 118.037l1.871-1.465 1.76-1.58 1.393-1.961 1.9-1.435-.012-.029-1.305.4-1.244.544-1.201.644-1.348.3-1.143.782.204.086-.965-1.435-.368-1.183-.297-1.153-.719-1.331-.496-1.237h.027l.037 2.362.16 2.365.101 2.363.215 2.367-.157 2.355.058.06z" fill="#383838" stroke="#383838" stroke-width="1.2"/>
    <path fill="none" d="M146.328 48.42l.311.127 3.513 10.537 5.339 11.28 4.743 11.039 2.789 10.243 5.38 11.297 4.553 10.961" stroke="#383838" stroke-width="1.2"/>
    <path d="M175.267 117.428l.32-2.354.159-2.36-.369-2.377.362-2.353-.029-.013-.656 1.197-.513 1.257-.412 1.3-.757 1.154-.274 1.358.086.204-1.435-.964-1.183-.37-1.153-.295-1.33-.72-1.238-.496.019.02 1.674 1.61 1.76 1.701 1.72 1.658 1.798 1.74 1.54 1.471.084.003z" fill="#383838" stroke="#383838" stroke-width="1.2"/>
</svg>
