<svg xmlns="http://www.w3.org/2000/svg" width="416.4" viewBox="0 0 416 500" style="width:416px;height:500px" preserveAspectRatio="none" height="500.4">
    <path d="M21.12 7.903l12.72.729 12.72.248 12.72-1.336L72 8.4h-.093l-.419 11.52.052 11.52.378 11.52-.748 11.52L72 66v.664l-12.72-1.42-12.72.519-12.72.755-12.72-.62L8.4 66h.082l-.12-11.52.252-11.52.073-11.52.416-11.52L8.4 8.4v.252z" fill="#f8f8f8" stroke="#383838" stroke-width="1.8"/>
    <path d="M35.45 37.327l-3.274 2.61-3.44 1.426-2.742.124-3.524-1.784-3.326-1.166-2.525-2.368-1.324-2.71-.785-2.158-.77-2.818-1.248-2.426.96-2.368.84-2.594 3.155-2.052 2.22-2.662 2.747-.884 3.266-.76 4.189.451 2.294 1.082 2.667.49 3.243 3.323 1.13 3.508.491 2.393-.556 3.944.535.883-1.935 2.644z" fill="#c2c2c2" stroke="#383838" stroke-width="1.2"/>
    <path d="M29.368 34.972q-.697.358-1.464.538-.768.179-1.614.179-3.008 0-4.592-1.982-1.584-1.983-1.584-5.728 0-3.755 1.584-5.737 1.584-1.983 4.592-1.983.846 0 1.623.18.777.179 1.455.538v3.267q-.757-.698-1.47-1.021-.712-.324-1.469-.324-1.613 0-2.435 1.28-.822 1.28-.822 3.8 0 2.51.822 3.79.822 1.28 2.435 1.28.757 0 1.47-.324.712-.323 1.469-1.02z"/>
    <path d="M45.216 31.351c-.835-.691-1.051-1.987-1.109-2.98-.072-1.325.173-2.65.663-3.889.201-.518.49-1.339 1.224-1.224.676.116 1.065.893 1.31 1.44.13.303.662.087.547-.23-.317-.835-1.037-1.858-2.016-1.858-.187 0-.389.044-.605.13-.547.23-.864.749-1.123 1.253a8.487 8.487 0 00-.662 1.958 9.325 9.325 0 00-.245 2.103c0 .633.072 1.267.23 1.872.26.979.807 2.102 1.901 2.419.202.057.389.086.59.086 1.023 0 1.945-.763 2.276-1.685.029-.057.029-.1.029-.144 0-.432-.72-.604-.893-.172-.303.82-1.239 1.627-2.117.921zm3.854-2.837c0 2.088.274 3.932 1.238 3.932.26 0 .504-.087.504-.404-.014-.23-.158-.46-.432-.46-.201 0-.345-1.93-.345-2.146-.043-.763-.043-1.54-.043-2.304 0-1.382.014-2.78.072-4.162.014-.201-.13-.288-.274-.288-.158 0-.317.101-.331.288-.058.677-.389 3.255-.389 5.544zm2.739-2.491a33.124 33.124 0 00-.202 3.399c0 .921.058 1.828.202 2.721a.365.365 0 00.36.288c.216 0 .432-.144.432-.403-.03-2.016-.188-3.989-.044-6.005.03-.475-.69-.46-.748 0zm.748-2.549a.55.55 0 01-.1-.086.596.596 0 00-.274-.072h-.014a.443.443 0 00-.188.043c-.057.029-.115.058-.172.115a.346.346 0 00-.101.173.46.46 0 00-.043.202c0 .043.014.086.014.13.029.1.072.172.13.244.043.015.072.043.115.072a.418.418 0 00.259.072.46.46 0 00.202-.043.346.346 0 00.172-.1.523.523 0 00.101-.174.29.29 0 00.058-.187v-.014c-.015-.043-.015-.101-.03-.144a.529.529 0 00-.129-.23zm5.383 3.744c0-.69-.374-1.44-1.137-1.44-.519 0-1.051.375-1.397.706-.835.806-1.67 2.362-1.67 3.686 0 1.268.878 2.261 2.203 2.261a2.44 2.44 0 001.814-.806c.202-.23.029-.605-.245-.605a.277.277 0 00-.172.058c-.418.244-.922.46-1.383.46-.432 0-.835-.187-1.109-.676-.158-.274-.201-.62-.158-.98.144.044.288.058.446.058 1.282 0 2.808-1.397 2.808-2.722zm-1.353-.619c.82-.13.662.62.518 1.037-.245.778-1.368 1.656-2.246 1.426.173-.634.72-1.628 1.195-2.06.13-.13.331-.36.533-.403zm4.609-.749c-.965.058-1.498 1.498-1.685 2.29-.015.029-.015.058-.03.1a26.363 26.363 0 01-.085-1.482c0-.216-.159-.317-.317-.317-.173 0-.331.1-.331.317.028 1.843.23 3.614.705 5.414.058.187.202.274.346.274a.43.43 0 00.417-.49 10.903 10.903 0 01-.072-2.822c.072-.62.346-2.376 1.138-2.39 1.512-.058 1.008 4.578 1.109 5.5.014.23.23.374.417.374.144 0 .274-.086.317-.273a7.922 7.922 0 00.159-1.67c0-.879-.101-1.786-.23-2.607-.13-1.022-.678-2.218-1.858-2.218zm4.724-.69c.086-.72.202-1.455.331-2.16.043-.231-.144-.39-.33-.39-.116 0-.231.072-.26.23a36.525 36.525 0 00-.447 2.391l-1.21.173c-.186.029-.273.158-.273.302 0 .216.187.461.475.418.288-.058.59-.072.879-.1a24.6 24.6 0 00-.216 3.729c.014.864.1 1.915.878 2.462a.936.936 0 00.576.202c.447 0 .807-.346.879-.879.028-.259-.202-.417-.432-.417-.188 0-.36.1-.404.302 0 .043-.028.058-.043.058-.086 0-.273-.23-.288-.245-.1-.158-.158-.374-.201-.547-.072-.346-.087-.706-.101-1.066a28.47 28.47 0 010-2.217c.029-.461.057-.936.1-1.397.548 0 1.095.029 1.642.057.303.015.447-.201.447-.432 0-.23-.144-.475-.447-.49a9.349 9.349 0 00-1.555.015z" aria-label="Client" font-size="14.4" font-family="SS Soapy Hands"/>
    <path fill="#F8F8F8" d="M9.6 46.8v.336l12.24-.999 12.24.972 12.24.33 12.24-1.78L70.8 46.8M9.6 56.4v.336l12.24-.999 12.24.972 12.24.33 12.24-1.78L70.8 56.4" stroke="#383838" stroke-width="1.8"/>
    <path d="M125.908 7.903l11.907.729 11.908.248 11.908-1.336 11.908.763 11.907-.419 11.908.052 11.908.378 11.907-.748 11.908 1.494 11.908-1.42 11.907.519L268.8 8.4h.518l-.62 11.52.184 11.52-.12 11.52.252 11.52L268.8 66v.287l-11.908.416-11.907.102-11.908.01-11.908-.51-11.907.251-11.908.287-11.908-1.708-11.907 1.68-11.908-1.17-11.908.996-11.908-1.235-11.907.512L114 66h.89l-.949-11.52.185-11.52.28-11.52.093-11.52L114 8.4v.252z" fill="#f8f8f8" stroke="#383838" stroke-width="1.8"/>
    <path d="M141.05 37.327l-3.274 2.61-3.44 1.426-2.742.124-3.524-1.784-3.326-1.166-2.525-2.368-1.324-2.71-.785-2.158-.77-2.818-1.248-2.426.96-2.368.84-2.594 3.155-2.052 2.22-2.662 2.747-.884 3.266-.76 4.188.451 2.294 1.082 2.668.49 3.243 3.323 1.13 3.508.491 2.393-.556 3.944.535.883-1.935 2.644z" fill="#cdcdcd" stroke="#383838" stroke-width="1.2"/>
    <path d="M132.136 22.318l-1.385 6.086h2.78zm-1.793-2.69h3.596l4.014 14.872h-2.938l-.917-3.676h-3.934l-.897 3.676h-2.938z"/>
    <path d="M153.725 30.084c0-.792.029-1.598.043-2.39.014-1.541.043-3.096-.029-4.623.072-.187-.072-.288-.245-.288a.51.51 0 00-.432.23 65.772 65.772 0 00-2.376 4.58c-.676 1.512-1.425 3.081-1.843 4.622v.015c-.029.158.101.23.245.23.13 0 .26-.058.331-.187.375-.706.634-1.066.965-1.786.835-.1 1.54-.245 2.376-.374v.072c-.014.389 0 .72-.014 1.123 0 .36.057.778.259 1.066.086.115.446.043.518-.101.058-.101.087-.202.13-.303.057-.259.029-.518.029-.748.028-.39.014-.764.043-1.138zm-2.088-2.405c.533-1.109.835-1.9 1.382-3.01-.072 1.153-.173 1.7-.201 2.852 0 .576-.03 1.339-.058 1.944-.778.029-1.21.043-2.002.187.303-.691.562-1.296.879-1.973zm5.486-.95a7.581 7.581 0 00-.908.893c.346-1.57.706-3.125 1.152-4.68.058-.216-.057-.303-.216-.303a.452.452 0 00-.417.303c-.49 1.44-.965 2.88-1.34 4.32-.215.892-.475 1.8-.69 2.707a18.42 18.42 0 00-.36 2.073c-.015.26.172.404.388.404.115 0 .26-.058.346-.159 1.238.461 2.606-.561 3.557-1.613.662-.748 1.21-1.67 1.41-2.577.13-.533.13-1.051-.014-1.541-.432-1.31-1.886-.691-2.908.173zm-1.757 4.622c.158-.648.302-1.31.46-1.973.274-.576.706-1.108 1.181-1.584.36-.374.75-.72 1.21-.979.749-.446 1.066.101 1.037.735-.043 1.425-2.103 4.334-3.773 3.83-.043-.014-.072-.029-.115-.029zm6.893-2.808c-.173-.173-.461-.389-.562-.633-.216-.562.288-.893.778-1.152.374-.202.936-.404 1.396-.404.332 0 .62.116.735.432.043.13.144.188.259.188.245 0 .562-.274.46-.548-.186-.576-.762-.82-1.44-.82-1.238 0-2.822.806-3.08 1.958-.015.043-.015.086-.03.115-.13.994 1.052 1.786 1.685 2.275.317.245 1.296.764.922 1.354-.144.23-.331.317-.533.317-.518 0-1.123-.547-1.325-.749a.337.337 0 00-.245-.1c-.273 0-.576.273-.49.575.217.677.98 1.152 1.786 1.152.836 0 1.527-.518 1.743-1.339.029-.173.029-.36 0-.533-.187-.993-1.411-1.44-2.06-2.088zm6.244-3.383c.259-.72.547-1.455.82-2.16.116-.231-.043-.39-.23-.39a.326.326 0 00-.302.23c-.36.807-.706 1.6-1.008 2.391l-1.239.173c-.216.029-.331.158-.36.302-.043.216.087.461.389.418.158-.029.302-.043.46-.058l.447-.043a26.233 26.233 0 00-1.08 3.73c-.187.864-.345 1.915.303 2.462a.773.773 0 00.532.202c.447 0 .879-.346 1.08-.879.087-.259-.1-.417-.33-.417-.174 0-.375.1-.476.302-.014.043-.029.058-.058.058-.1 0-.23-.23-.23-.245a1.732 1.732 0 01-.072-.547c.058-1.411.605-3.298 1.08-4.68.547 0 1.08.029 1.627.057.303.015.49-.201.533-.432.072-.23-.029-.475-.317-.49a9.536 9.536 0 00-1.57.015zm2.967 1.842l-.015.03c.072-.346.158-.72.274-1.095.057-.245-.101-.36-.288-.375a.497.497 0 00-.476.375 63.816 63.816 0 00-1.468 6.105c-.058.26.115.39.33.39.202 0 .433-.13.476-.39.23-1.18.518-2.232 1.022-3.34.26-.576 1.052-2.146 1.8-2.146.159 0 .317.072.476.245.057.072.144.1.23.1.187 0 .403-.172.446-.374a.337.337 0 00-.043-.259c-.201-.36-.504-.504-.835-.504-.662 0-1.44.576-1.93 1.238zm7.068 1.772c.13-.836.33-1.844.115-2.592-.115-.375-.346-.548-.634-.548-.633 0-2.563 1.124-3.096 1.47-.403.273-.216.863.23.604a11.019 11.019 0 011.83-.95c.158-.072.49-.288.662-.288.374 0 .245.777.216 1.065-.043.49-.1.98-.202 1.483a1.368 1.368 0 00-1.137-.59c-1.368 0-2.981 1.54-3.283 2.866-.13.576-.015 1.094.576 1.296a1.6 1.6 0 00.532.086c.72 0 2.016-.418 2.736-.677-.043.288.159.432.39.432.23 0 .489-.144.546-.446.015-.029.015-.072.015-.101l.029-.187c0-.043.014-.072.014-.101l.216-.086a.474.474 0 00.274-.332c.057-.244-.072-.49-.332-.446.116-.648.202-1.31.303-1.958zm-4.234 2.836c-.302-.216-.201-.345-.014-.705.302-.72 1.195-1.57 1.987-1.57.202 0 .374.072.518.216.36.389.432.95.404 1.541a38.88 38.88 0 01-1.584.475c-.303.087-.59.173-.864.173a.707.707 0 01-.447-.13zm6.566-.115c-.964-.1-.546-1.627-.244-2.318.302-.677.72-1.354 1.18-1.959.246-.302.548-.748.894-.936.72-.388.792.332.748.807-.028.46.663.302.778-.13 0-.014 0-.043.014-.057.058-.792-.273-1.599-1.022-1.599-.202 0-.446.072-.734.23-1.167.649-2.175 2.276-2.693 3.413-.13.317-.274.677-.346 1.037-.201.893-.144 1.829.562 2.261.187.13.417.187.648.187.792 0 1.742-.59 2.347-1.137.46-.432 0-1.066-.49-.634-.403.374-1.123.893-1.641.835zm6.441-6.335c.26-.72.548-1.455.821-2.16.115-.231-.043-.39-.23-.39a.329.329 0 00-.303.23c-.36.807-.705 1.6-1.008 2.391l-1.238.173c-.216.029-.331.158-.36.302-.043.216.086.461.389.418.158-.029.302-.043.46-.058l.447-.043a26.233 26.233 0 00-1.08 3.73c-.187.864-.346 1.915.302 2.462a.773.773 0 00.533.202c.447 0 .879-.346 1.08-.879.087-.259-.1-.417-.331-.417-.173 0-.374.1-.475.302-.015.043-.03.058-.058.058-.1 0-.23-.23-.23-.245a1.732 1.732 0 01-.072-.547c.057-1.411.605-3.298 1.08-4.68.547 0 1.08.029 1.627.057.302.015.49-.201.533-.432.072-.23-.03-.475-.317-.49a9.536 9.536 0 00-1.57.015zm7.993-2.55c-.101 0-.245.058-.303.144-.316.418-.36.49-.532.936-.188.447-.216.576-.39 1.023-.302.82-.604 1.656-.863 2.491a54.57 54.57 0 00-.72 2.506c-.087-1.124-.159-2.261-.144-3.442.014-.374-.504-.403-.763-.043-.62.835-1.124 1.713-1.57 2.606-.072.173-.158.331-.23.504.144-.72.273-1.44.432-2.16.158-.749.345-1.497.547-2.246.115-.36.216-.72.317-1.08.115-.36.23-.59.187-.922-.015-.158-.288-.13-.403-.014-.288.288-.36.504-.504.85-.159.36-.274.72-.39 1.08-.215.662-.36 1.31-.518 1.972l-.086.346a59.458 59.458 0 00-.432 2.203c-.13.763-.187 1.512-.317 2.275-.029.26.288.303.475.144a.525.525 0 00.274-.201c.518-.807.893-1.685 1.325-2.535.259-.475.518-.965.82-1.425.058 1.57.217 3.096.418 4.622.015.144.13.202.245.202.216 0 .504-.188.562-.432.288-1.628.748-3.284 1.296-4.925.259-.821.561-1.627.864-2.448.158-.432.187-.533.345-.95.072-.231.13-.36.159-.49.028-.13.057-.26.043-.475.014-.087-.058-.13-.144-.116zm.391 3.413a31.569 31.569 0 00-.994 3.399c-.201.921-.374 1.828-.432 2.721 0 .187.144.288.303.288.216 0 .46-.144.518-.403.446-2.016.734-3.989 1.354-6.005.13-.475-.605-.46-.75 0zm1.325-2.549c-.03-.028-.058-.057-.087-.086a.446.446 0 00-.245-.072h-.014a.508.508 0 00-.202.043.544.544 0 00-.331.288.532.532 0 00-.1.202c-.015.043-.015.086-.015.13 0 .1.029.172.072.244a.255.255 0 01.1.072c.058.058.16.072.246.072a.578.578 0 00.216-.043.393.393 0 00.187-.1c.057-.058.115-.116.144-.174a.32.32 0 00.086-.187l.015-.014c-.015-.043.014-.101.014-.144a.452.452 0 00-.086-.23zm4.573 2.549c-1.987-.806-4.636 1.93-5.14 4.205-.13.518-.144 1.022 0 1.44.432 1.368 1.987.648 2.995-.26.216-.172.403-.36.59-.56-.144.518-.259 1.036-.216 1.482.029.173.159.26.303.26s.316-.101.403-.26c.432-.676.533-1.57.72-2.29.216-.777.417-1.554.633-2.332a74.007 74.007 0 011.397-4.752c.015-.014.015-.014.015-.029.043-.187-.087-.273-.23-.273a.45.45 0 00-.418.302c-.346 1.022-.706 2.045-1.052 3.067zm-4.377 4.781c-.029-1.728 2.117-4.565 3.96-3.874a.183.183 0 00.086.015c-.086.201-.144.403-.216.619v.014l-.043.13c-.144.418-.274.835-.403 1.238-.202.404-.49.778-.821 1.152-.403.461-.864.922-1.411 1.253-.72.447-1.123.159-1.152-.547zm10.247-4.32a.542.542 0 00-.057-.13c-.303-.417-.778-.59-1.296-.59-.792 0-1.685.432-2.362 1.109-.734.763-1.397 1.872-1.627 2.909-.087.446-.115.892-.043 1.281.273 1.455 1.972 1.57 3.168.389.201-.202.388-.403.561-.634-.029.144-.057.274-.086.404-.144.676-.216 1.44-.519 2.102-.49 1.094-1.785.374-2.404.1-.404-.172-.735.476-.461.706.432.404 1.123.778 1.843.778.187 0 .389-.029.576-.086.835-.26 1.282-1.08 1.469-1.815.13-.432.23-.864.345-1.296.375-1.627.648-3.269 1.008-4.881.03-.173-.028-.288-.115-.346zm-2.966 4.58c-.663.546-1.368.33-1.512-.36-.202-.85.302-1.96.864-2.78.619-.922 2.102-1.987 2.88-1.18a.191.191 0 00-.029.086 9.76 9.76 0 01-1.109 2.822c-.273.504-.633 1.037-1.094 1.411zm7.929-3.846c.13-.518.072-1.065-.345-1.31a.822.822 0 00-.461-.13c-.518 0-1.123.375-1.555.706-1.023.806-2.218 2.362-2.52 3.686-.087.346-.101.677-.029.965.158.864.878 1.296 1.714 1.296.662 0 1.396-.273 2.001-.806.245-.23.159-.605-.1-.605a.349.349 0 00-.188.058c-.475.244-1.022.46-1.497.46-.418 0-.778-.187-.95-.676-.102-.274-.058-.62.071-.98.13.044.274.058.432.058 1.195 0 2.78-1.195 3.298-2.29.043-.13.1-.273.13-.432zm-1.21-.619c.85-.13.52.62.289 1.037-.432.778-1.757 1.656-2.578 1.426.331-.663 1.08-1.628 1.67-2.06.159-.13.404-.36.62-.403zm4.491-1.439c.26-.72.548-1.455.821-2.16.115-.231-.043-.39-.23-.39a.329.329 0 00-.303.23c-.36.807-.705 1.6-1.008 2.391l-1.238.173c-.216.029-.331.158-.36.302-.043.216.086.461.389.418.158-.029.302-.043.46-.058l.447-.043a26.233 26.233 0 00-1.08 3.73c-.187.864-.346 1.915.302 2.462a.773.773 0 00.533.202c.447 0 .879-.346 1.08-.879.087-.259-.1-.417-.331-.417-.173 0-.374.1-.475.302-.015.043-.029.058-.058.058-.1 0-.23-.23-.23-.245a1.732 1.732 0 01-.072-.547c.057-1.411.605-3.298 1.08-4.68.547 0 1.08.029 1.627.057.302.015.49-.201.533-.432.072-.23-.029-.475-.317-.49a9.536 9.536 0 00-1.57.015zm3.111 6.191c-.677-.691-.59-1.987-.417-2.98.23-1.325.777-2.65 1.555-3.889.317-.518.792-1.339 1.497-1.224.663.116.864.893.98 1.44.072.303.648.087.619-.23-.13-.835-.62-1.858-1.599-1.858a1.84 1.84 0 00-.633.13c-.605.23-1.037.749-1.411 1.253-.461.619-.807 1.281-1.11 1.958a10.424 10.424 0 00-.734 2.103 7.68 7.68 0 00-.201 1.872c.043.979.317 2.102 1.339 2.419.187.057.374.086.576.086 1.022 0 2.117-.763 2.664-1.685.043-.057.043-.1.058-.144.1-.432-.576-.604-.85-.172-.504.82-1.613 1.627-2.333.921zm7.192-5.659c-1.613 0-2.635 1.757-2.98 3.197v.043c-.044.173.014.302.114.36-.345 1.21-.432 2.462.49 3.038.23.144.49.202.734.202 1.31 0 2.679-1.843 3.154-2.952.158-.302.245-.605.331-.922.288-1.324 0-2.664-1.425-2.923a2.166 2.166 0 00-.418-.043zm-2.088 5.587c-.518-.792-.144-2.117.245-3.168.331-.777.864-1.555 1.641-1.555a1.4 1.4 0 01.476.086c1.123.418.85 1.901.316 2.938-.316.634-1.31 2.045-2.102 2.045-.216 0-.418-.101-.576-.346zm11.159-5.011c-.49-.648-1.425-.403-2.073.317-.245.288-.49.633-.677.979-.086-.95-.331-1.814-.994-1.814-.187 0-.403.057-.676.216-.533.316-.893.921-1.181 1.512l.086-.922c.029-.389-.59-.245-.662.115v.058a229.22 229.22 0 01-.504 5.328c-.058.49.734.504.792 0 .173-1.512.345-3.125 1.152-4.608.072-.159.173-.403.302-.533.13-.13.432-.346.59-.26.245.116.202.822.217 1.08.028.793 0 1.585-.03 2.391-.028.475.764.36.865-.115.173-.907.518-1.858 1.094-2.693.303-.403.72-.763 1.037-.345.173.259.058.878.014 1.21-.1 1.324-.532 2.606-.864 3.93-.072.26.144.418.36.418.188 0 .36-.086.432-.302.288-.75.533-1.484.706-2.232.058-.274.115-.548.158-.821.13-.922.404-2.232-.144-2.909zm3.475-.403c-.13 0-.26.014-.389.057-.677.188-1.238.864-1.656 1.412v.014a.508.508 0 00-.187.288c-.1.346-.202.706-.26 1.066-.273 1.05-.532 2.102-.791 3.139a30.76 30.76 0 00-.23.965c-.159.734-.303 1.468-.332 2.203-.014.201.115.273.26.273a.568.568 0 00.518-.374c.36-1.051.504-2.146.749-3.197v-.043c.115.144.259.288.403.403 1.195.893 2.707 0 3.47-1.454.159-.288.245-.59.317-.922.274-1.152.1-2.491-.518-3.153-.317-.346-.807-.677-1.354-.677zm-.734 5.673c-.504-.072-.792-.446-.965-.878a2.88 2.88 0 01-.1-1.166c.157-.62.301-1.239.445-1.858a.41.41 0 000-.187c.317-.389.706-.778 1.152-.792.548 0 .994.518 1.152.965.23.734.202 1.944-.216 2.75-.273.547-.82 1.267-1.468 1.166zm6.366-5.846c-1.613 0-2.635 1.757-2.981 3.197v.043c-.043.173.014.302.115.36-.345 1.21-.432 2.462.49 3.038.23.144.49.202.734.202 1.31 0 2.679-1.843 3.154-2.952.158-.302.245-.605.331-.922.288-1.324 0-2.664-1.426-2.923a2.166 2.166 0 00-.417-.043zm-2.088 5.587c-.519-.792-.144-2.117.245-3.168.33-.777.864-1.555 1.641-1.555.159 0 .317.029.475.086 1.124.418.85 1.901.317 2.938-.317.634-1.31 2.045-2.102 2.045-.216 0-.418-.101-.576-.346zm7.703-5.429h-.086c-.98.058-1.844 1.498-2.218 2.29-.014.029-.029.058-.043.1.072-.503.158-.993.26-1.482.042-.216-.102-.317-.26-.317-.159 0-.346.1-.389.317-.389 1.843-.62 3.614-.547 5.414.014.187.144.274.288.274.216 0 .504-.188.533-.49.072-.936.259-1.886.576-2.822.216-.62.892-2.376 1.684-2.39 1.527-.058-.057 4.578-.158 5.5-.043.23.144.374.331.374a.404.404 0 00.375-.273c.604-1.31.806-2.851.907-4.277.1-.922-.144-2.218-1.253-2.218zm6.513 1.368c.13-.518.072-1.065-.346-1.31a.822.822 0 00-.46-.13c-.519 0-1.124.375-1.556.706-1.022.806-2.217 2.362-2.52 3.686-.086.346-.1.677-.028.965.158.864.878 1.296 1.713 1.296.663 0 1.397-.273 2.002-.806.245-.23.158-.605-.101-.605a.349.349 0 00-.187.058c-.475.244-1.023.46-1.498.46-.417 0-.777-.187-.95-.676-.101-.274-.058-.62.072-.98.13.044.273.058.432.058 1.195 0 2.779-1.195 3.297-2.29.044-.13.101-.273.13-.432zm-1.21-.619c.85-.13.519.62.288 1.037-.432.778-1.756 1.656-2.577 1.426.33-.663 1.08-1.628 1.67-2.06.159-.13.403-.36.62-.403zm4.678-.749h-.086c-.98.058-1.844 1.498-2.218 2.29-.014.029-.029.058-.043.1.072-.503.158-.993.259-1.482.043-.216-.1-.317-.26-.317-.158 0-.345.1-.388.317-.389 1.843-.62 3.614-.547 5.414.014.187.144.274.288.274.216 0 .504-.188.533-.49.072-.936.259-1.886.576-2.822.216-.62.892-2.376 1.684-2.39 1.527-.058-.057 4.578-.158 5.5-.043.23.144.374.331.374a.404.404 0 00.375-.273c.604-1.31.806-2.851.907-4.277.1-.922-.144-2.218-1.253-2.218zm4.606-.69c.26-.72.548-1.455.821-2.16.115-.231-.043-.39-.23-.39a.329.329 0 00-.303.23c-.36.807-.705 1.6-1.008 2.391l-1.238.173c-.216.029-.331.158-.36.302-.043.216.086.461.389.418.158-.029.302-.043.46-.058l.447-.043a26.233 26.233 0 00-1.08 3.73c-.187.864-.346 1.915.302 2.462a.773.773 0 00.533.202c.447 0 .879-.346 1.08-.879.087-.259-.1-.417-.33-.417-.174 0-.375.1-.476.302-.015.043-.029.058-.058.058-.1 0-.23-.23-.23-.245a1.732 1.732 0 01-.072-.547c.057-1.411.605-3.298 1.08-4.68.547 0 1.08.029 1.627.057.302.015.49-.201.533-.432.072-.23-.029-.475-.317-.49a9.536 9.536 0 00-1.57.015z" aria-label="AbstractWidgetComponent" font-style="italic" font-size="14.4" font-family="SS Soapy Hands"/>
    <path fill="#F8F8F8" d="M115.2 46.8v.336l11.723-.999 11.723.972 11.723.33 11.723-1.78 11.723 1.017 11.723-.558 11.723.068 11.724.505 11.723-.997 11.723 1.992 11.723-1.894 11.723.692 11.723.316m-152.4 9.6v.336l11.723-.999 11.723.972 11.723.33 11.723-1.78 11.723 1.017 11.723-.558 11.723.068 11.724.505 11.723-.997 11.723 1.992 11.723-1.894 11.723.692 11.723.316" stroke="#383838" stroke-width="1.8"/>
    <path d="M322.2 7.903l11.4.729 11.4.248 11.4-1.336 11.4.763 11.4.093h-.512l.052 11.52.378 11.52-.748 11.52 1.494 11.52L379.2 66v-.756l-11.4.519-11.4.755-11.4-.62-11.4.184-11.4-.12-11.4.038h.214l.073-11.52.416-11.52.102-11.52.01-11.52L310.8 8.4v.252z" fill="#f8f8f8" stroke="#383838" stroke-width="1.8"/>
    <path d="M337.85 37.327l-3.274 2.61-3.44 1.426-2.742.124-3.524-1.784-3.326-1.166-2.525-2.368-1.324-2.71-.785-2.158-.77-2.818-1.248-2.426.96-2.368.84-2.594 3.155-2.052 2.22-2.662 2.747-.884 3.266-.76 4.189.451 2.294 1.082 2.667.49 3.243 3.323 1.13 3.508.491 2.393-.556 3.944.535.883-1.935 2.644z" fill="#b1b1b1" stroke="#383838" stroke-width="1.2"/>
    <path d="M324.513 23.118v-2.59h8.856v2.59h-2.959v9.692h2.959v2.59h-8.856v-2.59h2.959v-9.692z"/>
    <path d="M352.742 22.61c-.1 0-.244.058-.302.144-.317.418-.36.49-.533.936-.187.447-.216.576-.389 1.023-.302.82-.604 1.656-.864 2.491a54.57 54.57 0 00-.72 2.506c-.086-1.124-.158-2.261-.144-3.442.015-.374-.504-.403-.763-.043-.619.835-1.123 1.713-1.57 2.606-.071.173-.158.331-.23.504.144-.72.274-1.44.432-2.16.159-.749.346-1.497.547-2.246.116-.36.216-.72.317-1.08.115-.36.23-.59.187-.922-.014-.158-.288-.13-.403-.014-.288.288-.36.504-.504.85-.158.36-.273.72-.389 1.08-.216.662-.36 1.31-.518 1.972l-.086.346a59.458 59.458 0 00-.432 2.203c-.13.763-.188 1.512-.317 2.275-.029.26.288.303.475.144.1-.029.202-.1.274-.201.518-.807.892-1.685 1.324-2.535.26-.475.519-.965.821-1.425.058 1.57.216 3.096.418 4.622.014.144.13.202.245.202.216 0 .504-.188.561-.432.288-1.628.749-3.284 1.296-4.925.26-.821.562-1.627.864-2.448.159-.432.187-.533.346-.95.072-.231.13-.36.158-.49.029-.13.058-.26.043-.475.015-.087-.057-.13-.144-.116zm.72 3.413a31.569 31.569 0 00-.993 3.399c-.202.921-.375 1.828-.432 2.721 0 .187.144.288.302.288.216 0 .46-.144.519-.403.446-2.016.734-3.989 1.353-6.005.13-.475-.605-.46-.749 0zm1.325-2.549l-.086-.086a.446.446 0 00-.245-.072h-.014a.508.508 0 00-.202.043.544.544 0 00-.331.288.532.532 0 00-.101.202c-.014.043-.014.086-.014.13 0 .1.028.172.072.244a.255.255 0 01.1.072c.058.058.159.072.245.072a.578.578 0 00.216-.043.393.393 0 00.187-.1.737.737 0 00.144-.174c.058-.057.072-.115.087-.187l.014-.014c-.014-.043.015-.101.015-.144a.452.452 0 00-.087-.23zm4.903 2.549c-1.987-.806-4.637 1.93-5.141 4.205-.13.518-.144 1.022 0 1.44.432 1.368 1.987.648 2.995-.26.216-.172.403-.36.59-.56-.143.518-.259 1.036-.215 1.482.028.173.158.26.302.26s.317-.101.403-.26c.432-.676.533-1.57.72-2.29.216-.777.418-1.554.634-2.332a74.007 74.007 0 011.397-4.752c.014-.014.014-.014.014-.029.043-.187-.086-.273-.23-.273-.159 0-.346.1-.418.302-.346 1.022-.706 2.045-1.051 3.067zm-4.378 4.781c-.029-1.728 2.117-4.565 3.96-3.874a.183.183 0 00.087.015c-.087.201-.144.403-.216.619v.014l-.044.13c-.144.418-.273.835-.403 1.238-.201.404-.49.778-.82 1.152-.404.461-.865.922-1.412 1.253-.72.447-1.123.159-1.152-.547zm10.576-4.32a.505.505 0 00-.057-.13c-.303-.417-.778-.59-1.296-.59-.792 0-1.685.432-2.362 1.109-.734.763-1.397 1.872-1.627 2.909-.086.446-.115.892-.043 1.281.273 1.455 1.973 1.57 3.168.389.201-.202.389-.403.561-.634a14.6 14.6 0 01-.086.404c-.144.676-.216 1.44-.518 2.102-.49 1.094-1.786.374-2.405.1-.403-.172-.735.476-.46.706.431.404 1.122.778 1.842.778.187 0 .39-.029.576-.086.835-.26 1.282-1.08 1.47-1.815.129-.432.23-.864.345-1.296.374-1.627.648-3.269 1.008-4.881.028-.173-.03-.288-.116-.346zm-2.966 4.58c-.662.546-1.368.33-1.512-.36-.202-.85.302-1.96.864-2.78.62-.922 2.102-1.987 2.88-1.18-.014.028-.029.057-.029.086a9.76 9.76 0 01-1.109 2.822c-.273.504-.633 1.037-1.094 1.411zm8.258-3.846c.13-.518.073-1.065-.345-1.31a.822.822 0 00-.46-.13c-.52 0-1.124.375-1.556.706-1.022.806-2.218 2.362-2.52 3.686-.086.346-.1.677-.029.965.159.864.879 1.296 1.714 1.296.662 0 1.397-.273 2.001-.806.245-.23.159-.605-.1-.605a.349.349 0 00-.188.058c-.475.244-1.022.46-1.497.46-.418 0-.778-.187-.95-.676-.101-.274-.058-.62.071-.98.13.044.274.058.432.058 1.196 0 2.78-1.195 3.298-2.29.043-.13.1-.273.13-.432zm-1.209-.619c.85-.13.518.62.288 1.037-.432.778-1.757 1.656-2.578 1.426.332-.663 1.08-1.628 1.67-2.06.16-.13.404-.36.62-.403zm4.819-1.439c.26-.72.548-1.455.821-2.16.115-.231-.043-.39-.23-.39a.329.329 0 00-.303.23c-.36.807-.705 1.6-1.008 2.391l-1.238.173c-.216.029-.331.158-.36.302-.043.216.086.461.389.418.158-.029.302-.043.46-.058l.447-.043a26.233 26.233 0 00-1.08 3.73c-.187.864-.346 1.915.302 2.462a.773.773 0 00.533.202c.447 0 .879-.346 1.08-.879.087-.259-.1-.417-.33-.417-.174 0-.375.1-.476.302-.015.043-.029.058-.058.058-.1 0-.23-.23-.23-.245a1.732 1.732 0 01-.072-.547c.057-1.411.605-3.298 1.08-4.68.547 0 1.08.029 1.627.057.302.015.49-.201.533-.432.072-.23-.029-.475-.317-.49a9.536 9.536 0 00-1.57.015z" aria-label="Widget" font-style="italic" font-size="14.4" font-family="SS Soapy Hands"/>
    <path fill="#F8F8F8" d="M312 46.8v.336l11-.999 11 .972 11 .33 11-1.78 11 1.017 11 .124m-66 9.6v.336l11-.999 11 .972 11 .33 11-1.78 11 1.017 11 .124" stroke="#383838" stroke-width="1.8"/>
    <path d="M145.32 155.503l11.52.729 11.52.248 11.52-1.336 11.52.763 11.52-.419 11.52.052 11.52.378 11.52-.748L249 156h.664l-1.42 11.52.519 11.52.755 11.52-.62 11.52.102 11.52v.082l-11.52-.12-11.52.252-11.52.073-11.52.416-11.52.102-11.52.01-11.52-.51-11.52.251-11.52.287-11.52-.843h-.865l1.68-11.52-1.17-11.52.996-11.52-1.235-11.52.594-11.52v.252z" fill="#f8f8f8" stroke="#383838" stroke-width="1.8"/>
    <path d="M160.85 184.927l-3.274 2.61-3.44 1.426-2.742.124-3.524-1.784-3.326-1.166-2.525-2.368-1.324-2.71-.785-2.158-.77-2.818-1.248-2.426.96-2.368.84-2.594 3.155-2.052 2.22-2.662 2.747-.884 3.266-.76 4.188.451 2.294 1.082 2.668.49 3.243 3.323 1.13 3.508.491 2.393-.556 3.944.535.883-1.935 2.644z" fill="#c2c2c2" stroke="#383838" stroke-width="1.2"/>
    <path d="M154.768 182.572q-.698.358-1.465.538-.767.179-1.613.179-3.008 0-4.592-1.982-1.584-1.983-1.584-5.728 0-3.755 1.584-5.737 1.584-1.983 4.592-1.983.846 0 1.623.18.777.179 1.455.538v3.267q-.757-.697-1.47-1.021-.712-.324-1.469-.324-1.613 0-2.435 1.28-.822 1.28-.822 3.8 0 2.51.822 3.79.822 1.28 2.435 1.28.757 0 1.47-.323.712-.324 1.469-1.021z"/>
    <path d="M173.482 170.21c-.101 0-.23.058-.274.144-.216.418-.245.49-.317.936-.072.447-.086.576-.144 1.023-.115.82-.216 1.656-.288 2.491-.072.835-.13 1.67-.144 2.506-.36-1.124-.691-2.261-.936-3.442-.086-.374-.605-.403-.792-.043-.417.835-.705 1.713-.95 2.606-.043.173-.087.331-.13.504-.014-.72-.043-1.44-.057-2.16-.015-.749 0-1.497.028-2.246.03-.36.058-.72.072-1.08.03-.36.101-.59-.028-.922-.058-.158-.317-.13-.404-.014-.216.288-.244.504-.316.85-.072.36-.101.72-.13 1.08-.058.662-.072 1.31-.072 1.972v.346c.014.734.029 1.469.072 2.203.043.763.158 1.512.202 2.275.028.26.36.303.504.144.1-.029.187-.1.23-.201.346-.807.518-1.685.749-2.535.144-.475.302-.965.49-1.425.417 1.57.935 3.096 1.483 4.622.043.144.172.202.288.202.216 0 .46-.188.46-.432a33.2 33.2 0 01.173-4.925c.072-.821.187-1.627.303-2.448.057-.432.057-.533.115-.95.029-.231.057-.36.057-.49s-.014-.26-.072-.475c-.014-.087-.086-.13-.172-.116zm1.151 3.413a33.124 33.124 0 00-.201 3.399c0 .921.057 1.828.201 2.721a.365.365 0 00.36.288c.216 0 .432-.144.432-.403-.029-2.016-.187-3.989-.043-6.005.029-.475-.691-.46-.749 0zm.749-2.549a.55.55 0 01-.1-.086.596.596 0 00-.274-.072h-.015a.443.443 0 00-.187.043.62.62 0 00-.173.115.346.346 0 00-.1.173.46.46 0 00-.044.202c0 .043.015.086.015.13a.65.65 0 00.13.244c.042.015.071.043.114.072a.418.418 0 00.26.072.46.46 0 00.201-.043.346.346 0 00.173-.1c.043-.058.086-.116.1-.174a.29.29 0 00.058-.187v-.014c-.014-.043-.014-.101-.028-.144a.529.529 0 00-.13-.23zm5.133 2.549c-2.16-.806-4.176 1.93-4.176 4.205 0 .518.115 1.022.345 1.44.75 1.368 2.132.648 2.938-.26.173-.172.317-.36.46-.56-.028.518-.028 1.036.13 1.482.058.173.202.26.346.26a.4.4 0 00.36-.26c.274-.676.158-1.57.187-2.29l.087-2.332c.057-1.584.144-3.168.316-4.752v-.029c0-.187-.144-.273-.288-.273-.158 0-.33.1-.345.302-.115 1.022-.245 2.045-.36 3.067zm-3.27 4.781c-.431-1.728 1.067-4.565 3.068-3.874a.183.183 0 00.087.015c-.03.201-.044.403-.072.619v.014c0 .044 0 .087-.015.13-.043.418-.072.835-.1 1.238-.116.404-.317.778-.562 1.152-.303.461-.663.922-1.123 1.253-.62.447-1.095.159-1.282-.547zm9.238-4.32a.34.34 0 00-.087-.13 1.926 1.926 0 00-1.425-.59c-.792 0-1.599.432-2.117 1.109a5.158 5.158 0 00-.95 2.909c0 .446.086.892.244 1.281.605 1.455 2.333 1.57 3.27.389.157-.202.287-.403.402-.634 0 .144 0 .274.015.404 0 .676.1 1.44-.044 2.102-.244 1.094-1.684.374-2.376.1-.446-.172-.619.476-.302.706.533.404 1.31.778 2.03.778.188 0 .375-.029.548-.086.777-.26 1.036-1.08 1.065-1.815.015-.432.03-.864.03-1.296 0-1.627-.102-3.269-.116-4.881a.383.383 0 00-.187-.346zm-1.916 4.58c-.532.546-1.281.33-1.598-.36-.389-.85-.13-1.96.23-2.78.404-.922 1.642-1.987 2.607-1.18-.015.028-.015.057-.015.086a8.16 8.16 0 01-.446 2.822c-.173.504-.403 1.037-.778 1.411zm7.035-3.846c0-.69-.375-1.44-1.138-1.44-.518 0-1.051.375-1.397.706-.835.806-1.67 2.362-1.67 3.686 0 1.268.878 2.261 2.203 2.261a2.44 2.44 0 001.814-.806c.202-.23.03-.605-.244-.605a.277.277 0 00-.173.058c-.418.244-.922.46-1.383.46-.432 0-.835-.187-1.108-.676-.159-.274-.202-.62-.159-.98.144.044.288.058.447.058 1.281 0 2.808-1.397 2.808-2.722zm-1.354-.619c.82-.13.662.62.518 1.037-.244.778-1.368 1.656-2.246 1.426.173-.634.72-1.628 1.195-2.06.13-.13.331-.36.533-.403zm4.142-1.439c.087-.72.202-1.455.332-2.16.043-.231-.144-.39-.332-.39-.115 0-.23.072-.259.23a36.525 36.525 0 00-.446 2.391l-1.21.173c-.187.029-.273.158-.273.302 0 .216.187.461.475.418.288-.058.59-.072.878-.1a24.6 24.6 0 00-.216 3.729c.015.864.101 1.915.879 2.462a.936.936 0 00.576.202c.446 0 .806-.346.878-.879.029-.259-.202-.417-.432-.417-.187 0-.36.1-.403.302 0 .043-.029.058-.043.058-.087 0-.274-.23-.288-.245-.101-.158-.159-.374-.202-.547-.072-.346-.086-.706-.1-1.066a28.47 28.47 0 010-2.217c.028-.461.057-.936.1-1.397.547 0 1.094.029 1.642.057.302.015.446-.201.446-.432 0-.23-.144-.475-.446-.49a9.349 9.349 0 00-1.556.015zm4.52 6.191c-.835-.691-1.051-1.987-1.109-2.98-.072-1.325.173-2.65.662-3.889.202-.518.49-1.339 1.224-1.224.677.116 1.066.893 1.31 1.44.13.303.663.087.548-.23-.317-.835-1.037-1.858-2.016-1.858-.187 0-.389.044-.605.13-.547.23-.864.749-1.123 1.253a8.487 8.487 0 00-.662 1.958 9.325 9.325 0 00-.245 2.103c0 .633.072 1.267.23 1.872.26.979.807 2.102 1.901 2.419.202.057.389.086.59.086 1.023 0 1.944-.763 2.276-1.685.028-.057.028-.1.028-.144 0-.432-.72-.604-.892-.172-.303.82-1.239 1.627-2.117.921zm5.879-5.659c-1.685 0-2.247 1.858-2.247 3.24a.39.39 0 00.202.36c-.058 1.21.13 2.462 1.195 3.038.26.144.518.202.763.202 1.555 0 2.592-2.462 2.592-3.874 0-1.526-.85-2.966-2.505-2.966zm-.807 5.587c-.705-.792-.633-2.117-.49-3.168.159-.777.519-1.555 1.297-1.555.144 0 .316.029.49.086 1.209.418 1.28 1.901.993 2.938-.173.634-.85 2.045-1.642 2.045-.216 0-.432-.101-.648-.346zm9.99-5.011c-.648-.648-1.526-.403-2.001.317a4.37 4.37 0 00-.46.979c-.303-.95-.75-1.814-1.412-1.814-.187 0-.389.057-.62.216-.46.316-.69.921-.835 1.512a143.96 143.96 0 01-.13-.922c-.057-.389-.633-.245-.633.115 0 .029.015.043.015.058.259 1.771.49 3.542.72 5.328.057.49.85.504.792 0-.173-1.512-.375-3.125.086-4.608.043-.159.086-.403.187-.533s.346-.346.533-.26c.26.116.389.822.46 1.08.202.793.36 1.585.52 2.391.086.475.849.36.834-.115-.028-.907.101-1.858.49-2.693.202-.403.533-.763.936-.345.245.259.26.878.302 1.21.202 1.324.072 2.606.044 3.93-.015.26.23.418.446.418.187 0 .346-.086.374-.302.116-.75.188-1.484.188-2.232 0-.274-.015-.548-.03-.821-.086-.922-.114-2.232-.806-2.909zm3.358-.403c-.13 0-.26.014-.375.057-.634.188-1.037.864-1.325 1.412v.014a.388.388 0 00-.13.288c-.014.346-.028.706-.014 1.066-.029 1.05-.043 2.102-.072 3.139v.965c0 .734.029 1.468.173 2.203.029.201.173.273.317.273.201 0 .417-.144.446-.374.115-1.051 0-2.146 0-3.197v-.043c.144.144.317.288.504.403 1.397.893 2.707 0 3.125-1.454.086-.288.115-.59.115-.922 0-1.152-.475-2.491-1.253-3.153-.403-.346-.965-.677-1.512-.677zm.575 5.673c-.518-.072-.907-.446-1.166-.878-.216-.374-.317-.763-.375-1.166.015-.62.015-1.239.015-1.858a.399.399 0 00-.043-.187c.23-.389.532-.778.979-.792.547 0 1.109.518 1.368.965.403.734.662 1.944.432 2.75-.159.547-.547 1.267-1.21 1.166zm5.01-5.846c-1.685 0-2.246 1.858-2.246 3.24 0 .173.086.302.201.36-.057 1.21.13 2.462 1.196 3.038.259.144.518.202.763.202 1.555 0 2.592-2.462 2.592-3.874 0-1.526-.85-2.966-2.506-2.966zm-.806 5.587c-.706-.792-.634-2.117-.49-3.168.159-.777.519-1.555 1.296-1.555.144 0 .317.029.49.086 1.21.418 1.281 1.901.993 2.938-.172.634-.85 2.045-1.641 2.045-.216 0-.432-.101-.648-.346zm6.347-5.429c-.965.058-1.498 1.498-1.685 2.29-.014.029-.014.058-.029.1a26.363 26.363 0 01-.086-1.482c0-.216-.159-.317-.317-.317-.173 0-.331.1-.331.317.029 1.843.23 3.614.705 5.414.058.187.202.274.346.274a.43.43 0 00.418-.49 10.903 10.903 0 01-.072-2.822c.072-.62.345-2.376 1.137-2.39 1.512-.058 1.008 4.578 1.109 5.5.014.23.23.374.418.374.144 0 .273-.086.316-.273a7.922 7.922 0 00.159-1.67c0-.879-.101-1.786-.23-2.607-.13-1.022-.677-2.218-1.858-2.218zm6.899 1.368c0-.69-.375-1.44-1.138-1.44-.518 0-1.051.375-1.397.706-.835.806-1.67 2.362-1.67 3.686 0 1.268.878 2.261 2.203 2.261a2.44 2.44 0 001.815-.806c.201-.23.028-.605-.245-.605a.277.277 0 00-.173.058c-.418.244-.922.46-1.382.46-.432 0-.836-.187-1.11-.676-.158-.274-.2-.62-.158-.98.144.044.288.058.447.058 1.281 0 2.808-1.397 2.808-2.722zM234 174.2c.821-.13.663.62.519 1.037-.245.778-1.368 1.656-2.247 1.426.173-.634.72-1.628 1.195-2.06.13-.13.332-.36.533-.403zm4.403-.75c-.965.058-1.498 1.498-1.685 2.29-.014.029-.014.058-.029.1a26.363 26.363 0 01-.086-1.482c0-.216-.159-.317-.317-.317-.173 0-.331.1-.331.317.029 1.843.23 3.614.705 5.414.058.187.202.274.346.274a.43.43 0 00.418-.49 10.903 10.903 0 01-.072-2.822c.072-.62.345-2.376 1.137-2.39 1.512-.058 1.008 4.578 1.109 5.5.014.23.23.374.417.374.145 0 .274-.086.317-.273a7.922 7.922 0 00.159-1.67c0-.879-.101-1.786-.23-2.607-.13-1.022-.677-2.218-1.858-2.218zm4.517-.69c.086-.72.202-1.455.331-2.16.043-.231-.144-.39-.33-.39-.116 0-.231.072-.26.23a36.525 36.525 0 00-.447 2.391l-1.21.173c-.186.029-.273.158-.273.302 0 .216.187.461.475.418.288-.058.59-.072.879-.1a24.6 24.6 0 00-.216 3.729c.014.864.1 1.915.878 2.462a.936.936 0 00.576.202c.447 0 .807-.346.879-.879.028-.259-.202-.417-.432-.417-.188 0-.36.1-.404.302 0 .043-.028.058-.043.058-.086 0-.273-.23-.288-.245-.1-.158-.158-.374-.201-.547-.072-.346-.087-.706-.101-1.066a28.47 28.47 0 010-2.217c.029-.461.057-.936.1-1.397.548 0 1.095.029 1.642.057.303.015.447-.201.447-.432 0-.23-.144-.475-.447-.49a9.349 9.349 0 00-1.555.015z" aria-label="WidgetComponent" font-size="14.4" font-family="SS Soapy Hands"/>
    <path fill="#F8F8F8" d="M135 194.4v.336l12.533-.999 12.534.972 12.533.33 12.533-1.78 12.534 1.017 12.533-.558 12.533.068 12.534.505 12.533.109M135 204v.336l12.533-.999 12.534.972 12.533.33 12.533-1.78 12.534 1.017 12.533-.558 12.533.068 12.534.505L247.8 204" stroke="#383838" stroke-width="1.8"/>
    <path d="M225 303.103l12 .729 12 .248 12-1.336 12 .763 12-.419 12 .052 12 .378 12 .082h-.83l1.494 11.52-1.42 11.52.519 11.52.755 11.52L321 361.2v-.103l-12 .185-12-.12-12 .252-12 .073-12 .416-12 .102-12 .01-12-.51-12-.305h.556l.287-11.52-1.708-11.52 1.68-11.52-1.17-11.52.355-11.52v.252z" fill="#f8f8f8" stroke="#383838" stroke-width="1.8"/>
    <path d="M240.05 332.527l-3.274 2.61-3.44 1.426-2.742.124-3.524-1.784-3.326-1.166-2.525-2.368-1.324-2.71-.785-2.158-.77-2.818-1.248-2.426.96-2.368.84-2.594 3.155-2.052 2.22-2.662 2.747-.884 3.266-.76 4.188.451 2.294 1.082 2.668.49 3.243 3.323 1.13 3.508.491 2.393-.556 3.944.535.883-1.935 2.644z" fill="#cdcdcd" stroke="#383838" stroke-width="1.2"/>
    <path d="M231.136 317.518l-1.385 6.086h2.78zm-1.793-2.69h3.596l4.014 14.872h-2.938l-.917-3.676h-3.934l-.897 3.676h-2.938z"/>
    <path d="M252.725 325.284c0-.792.029-1.598.043-2.39.014-1.541.043-3.096-.029-4.623.072-.187-.072-.288-.245-.288a.51.51 0 00-.432.23 65.772 65.772 0 00-2.376 4.58c-.676 1.512-1.425 3.081-1.843 4.622v.015c-.029.158.101.23.245.23.13 0 .26-.058.331-.187.375-.706.634-1.066.965-1.786.835-.1 1.54-.245 2.376-.374v.072c-.014.389 0 .72-.014 1.123 0 .36.057.778.259 1.066.086.115.446.043.518-.101.058-.101.087-.202.13-.303.057-.259.029-.518.029-.748.028-.39.014-.764.043-1.138zm-2.088-2.405c.533-1.109.835-1.9 1.382-3.01-.072 1.153-.173 1.7-.201 2.852 0 .576-.03 1.339-.058 1.944-.778.029-1.21.043-2.002.187.303-.691.562-1.296.879-1.973zm5.63-.95a7.581 7.581 0 00-.907.893c.346-1.57.706-3.125 1.152-4.68.058-.216-.057-.303-.216-.303a.452.452 0 00-.417.303c-.49 1.44-.965 2.88-1.34 4.32-.216.892-.475 1.8-.69 2.707a18.42 18.42 0 00-.36 2.073c-.015.26.172.404.388.404.115 0 .26-.058.346-.159 1.238.461 2.606-.561 3.556-1.613.663-.748 1.21-1.67 1.412-2.577.13-.533.13-1.051-.015-1.541-.432-1.31-1.886-.691-2.909.173zm-1.756 4.622c.158-.648.302-1.31.46-1.973.274-.576.706-1.108 1.181-1.584.36-.374.749-.72 1.21-.979.749-.446 1.065.101 1.037.735-.044 1.425-2.103 4.334-3.773 3.83-.043-.014-.072-.029-.115-.029zm7.037-2.808c-.173-.173-.46-.389-.561-.633-.216-.562.288-.893.777-1.152.375-.202.936-.404 1.397-.404.331 0 .62.116.734.432a.26.26 0 00.26.188c.244 0 .561-.274.46-.548-.187-.576-.763-.82-1.44-.82-1.238 0-2.822.806-3.081 1.958-.015.043-.015.086-.029.115-.13.994 1.051 1.786 1.685 2.275.317.245 1.296.764.921 1.354-.144.23-.33.317-.532.317-.519 0-1.124-.547-1.325-.749a.337.337 0 00-.245-.1c-.274 0-.576.273-.49.575.216.677.98 1.152 1.786 1.152.835 0 1.526-.518 1.742-1.339.03-.173.03-.36 0-.533-.187-.993-1.41-1.44-2.059-2.088zm6.389-3.383c.26-.72.547-1.455.82-2.16.116-.231-.042-.39-.23-.39-.115 0-.244.072-.302.23-.36.807-.706 1.6-1.008 2.391l-1.238.173c-.216.029-.332.158-.36.302-.044.216.086.461.388.418a5.23 5.23 0 01.461-.058l.447-.043a26.233 26.233 0 00-1.08 3.73c-.188.864-.346 1.915.302 2.462a.773.773 0 00.533.202c.446 0 .878-.346 1.08-.879.086-.259-.1-.417-.331-.417-.173 0-.375.1-.476.302-.014.043-.028.058-.057.058-.1 0-.23-.23-.23-.245a1.732 1.732 0 01-.073-.547c.058-1.411.605-3.298 1.08-4.68.548 0 1.08.029 1.628.057a.507.507 0 00.532-.432c.072-.23-.028-.475-.316-.49a9.536 9.536 0 00-1.57.015zm3.112 1.842l-.015.03c.072-.346.159-.72.274-1.095.058-.245-.1-.36-.288-.375a.497.497 0 00-.475.375 63.816 63.816 0 00-1.469 6.105c-.058.26.115.39.331.39.202 0 .432-.13.475-.39.23-1.18.519-2.232 1.023-3.34.259-.576 1.051-2.146 1.8-2.146.158 0 .317.072.475.245.058.072.144.1.23.1.188 0 .404-.172.447-.374a.337.337 0 00-.043-.259c-.202-.36-.504-.504-.836-.504-.662 0-1.44.576-1.93 1.238zm7.213 1.772c.13-.836.331-1.844.115-2.592-.115-.375-.345-.548-.633-.548-.634 0-2.564 1.124-3.096 1.47-.404.273-.216.863.23.604a11.019 11.019 0 011.829-.95c.158-.072.49-.288.662-.288.375 0 .245.777.216 1.065-.043.49-.1.98-.201 1.483a1.368 1.368 0 00-1.138-.59c-1.368 0-2.98 1.54-3.283 2.866-.13.576-.015 1.094.576 1.296.158.057.345.086.533.086.72 0 2.016-.418 2.736-.677-.044.288.158.432.388.432s.49-.144.548-.446c.014-.029.014-.072.014-.101l.029-.187c0-.043.014-.072.014-.101l.216-.086a.474.474 0 00.274-.332c.057-.244-.072-.49-.331-.446.115-.648.201-1.31.302-1.958zm-4.234 2.836c-.302-.216-.201-.345-.014-.705.302-.72 1.195-1.57 1.987-1.57.202 0 .375.072.519.216.36.389.432.95.403 1.541a38.88 38.88 0 01-1.584.475c-.303.087-.59.173-.864.173a.707.707 0 01-.447-.13zm6.712-.115c-.965-.1-.547-1.627-.245-2.318.302-.677.72-1.354 1.18-1.959.246-.302.548-.748.894-.936.72-.388.792.332.748.807-.028.46.663.302.778-.13 0-.014 0-.043.014-.057.058-.792-.273-1.599-1.022-1.599-.202 0-.446.072-.734.23-1.167.649-2.175 2.276-2.693 3.413-.13.317-.274.677-.346 1.037-.201.893-.144 1.829.562 2.261.187.13.417.187.648.187.792 0 1.742-.59 2.347-1.137.46-.432 0-1.066-.49-.634-.403.374-1.123.893-1.641.835zm6.585-6.335c.26-.72.548-1.455.821-2.16.115-.231-.043-.39-.23-.39a.329.329 0 00-.303.23c-.36.807-.705 1.6-1.008 2.391l-1.238.173c-.216.029-.331.158-.36.302-.043.216.086.461.389.418.158-.029.302-.043.46-.058l.447-.043a26.233 26.233 0 00-1.08 3.73c-.187.864-.346 1.915.302 2.462a.773.773 0 00.533.202c.447 0 .879-.346 1.08-.879.087-.259-.1-.417-.331-.417-.173 0-.374.1-.475.302-.015.043-.03.058-.058.058-.1 0-.23-.23-.23-.245a1.732 1.732 0 01-.072-.547c.057-1.411.605-3.298 1.08-4.68.547 0 1.08.029 1.627.057.302.015.49-.201.533-.432.072-.23-.03-.475-.317-.49a9.536 9.536 0 00-1.57.015zm8.138-2.55c-.101 0-.245.058-.303.144-.317.418-.36.49-.533.936-.187.447-.216.576-.388 1.023-.303.82-.605 1.656-.864 2.491a54.57 54.57 0 00-.72 2.506c-.087-1.124-.159-2.261-.144-3.442.014-.374-.504-.403-.764-.043-.619.835-1.123 1.713-1.57 2.606-.071.173-.158.331-.23.504.144-.72.274-1.44.432-2.16.159-.749.346-1.497.548-2.246.115-.36.216-.72.316-1.08.116-.36.23-.59.188-.922-.015-.158-.288-.13-.404-.014-.288.288-.36.504-.504.85-.158.36-.273.72-.388 1.08-.216.662-.36 1.31-.519 1.972l-.086.346a59.458 59.458 0 00-.432 2.203c-.13.763-.187 1.512-.317 2.275-.029.26.288.303.475.144a.525.525 0 00.274-.201c.518-.807.893-1.685 1.325-2.535.259-.475.518-.965.82-1.425.058 1.57.216 3.096.418 4.622.014.144.13.202.245.202.216 0 .504-.188.561-.432.288-1.628.75-3.284 1.296-4.925.26-.821.562-1.627.864-2.448.159-.432.188-.533.346-.95.072-.231.13-.36.158-.49.03-.13.058-.26.044-.475.014-.087-.058-.13-.144-.116zm.535 3.413a31.569 31.569 0 00-.993 3.399c-.202.921-.375 1.828-.432 2.721 0 .187.144.288.302.288a.533.533 0 00.519-.403c.446-2.016.734-3.989 1.353-6.005.13-.475-.605-.46-.749 0zm1.325-2.549l-.086-.086a.446.446 0 00-.245-.072h-.014a.508.508 0 00-.202.043.544.544 0 00-.331.288.532.532 0 00-.1.202c-.015.043-.015.086-.015.13 0 .1.028.172.072.244a.255.255 0 01.1.072c.058.058.159.072.245.072a.578.578 0 00.216-.043.393.393 0 00.187-.1.737.737 0 00.144-.174c.058-.057.072-.115.087-.187l.014-.014c-.014-.043.015-.101.015-.144a.452.452 0 00-.087-.23zm4.719 2.549c-1.987-.806-4.637 1.93-5.14 4.205-.13.518-.145 1.022 0 1.44.431 1.368 1.986.648 2.994-.26.216-.172.404-.36.59-.56-.143.518-.258 1.036-.215 1.482.029.173.158.26.302.26s.317-.101.403-.26c.432-.676.533-1.57.72-2.29.216-.777.418-1.554.634-2.332a74.007 74.007 0 011.397-4.752c.014-.014.014-.014.014-.029.043-.187-.086-.273-.23-.273-.159 0-.346.1-.418.302-.345 1.022-.705 2.045-1.051 3.067zm-4.378 4.781c-.028-1.728 2.117-4.565 3.96-3.874a.183.183 0 00.087.015c-.087.201-.144.403-.216.619v.014c-.015.044-.03.087-.043.13-.144.418-.274.835-.404 1.238-.201.404-.49.778-.82 1.152-.404.461-.864.922-1.412 1.253-.72.447-1.123.159-1.152-.547zm10.393-4.32a.59.59 0 00-.058-.13c-.302-.417-.778-.59-1.296-.59-.792 0-1.685.432-2.362 1.109-.734.763-1.396 1.872-1.627 2.909-.086.446-.115.892-.043 1.281.274 1.455 1.973 1.57 3.168.389.202-.202.389-.403.562-.634l-.087.404c-.144.676-.216 1.44-.518 2.102-.49 1.094-1.786.374-2.405.1-.403-.172-.734.476-.46.706.431.404 1.122.778 1.842.778.188 0 .39-.029.576-.086.836-.26 1.282-1.08 1.47-1.815.129-.432.23-.864.345-1.296.374-1.627.648-3.269 1.008-4.881.029-.173-.029-.288-.115-.346zm-2.967 4.58c-.662.546-1.368.33-1.512-.36-.201-.85.303-1.96.864-2.78.62-.922 2.103-1.987 2.88-1.18-.014.028-.029.057-.029.086a9.76 9.76 0 01-1.108 2.822c-.274.504-.634 1.037-1.095 1.411zm8.075-3.846c.13-.518.072-1.065-.346-1.31a.822.822 0 00-.46-.13c-.52 0-1.124.375-1.556.706-1.022.806-2.218 2.362-2.52 3.686-.086.346-.1.677-.029.965.159.864.879 1.296 1.714 1.296.662 0 1.397-.273 2.001-.806.245-.23.159-.605-.1-.605a.349.349 0 00-.188.058c-.475.244-1.022.46-1.497.46-.418 0-.778-.187-.95-.676-.101-.274-.058-.62.071-.98.13.044.274.058.432.058 1.196 0 2.78-1.195 3.298-2.29.043-.13.1-.273.13-.432zm-1.21-.619c.85-.13.518.62.288 1.037-.432.778-1.757 1.656-2.578 1.426.332-.663 1.08-1.628 1.67-2.06.16-.13.404-.36.62-.403zm4.635-1.439c.26-.72.548-1.455.821-2.16.115-.231-.043-.39-.23-.39a.329.329 0 00-.303.23c-.36.807-.705 1.6-1.008 2.391l-1.238.173c-.216.029-.331.158-.36.302-.043.216.086.461.389.418.158-.029.302-.043.46-.058l.447-.043a26.233 26.233 0 00-1.08 3.73c-.187.864-.346 1.915.302 2.462a.773.773 0 00.533.202c.447 0 .879-.346 1.08-.879.087-.259-.1-.417-.331-.417-.173 0-.374.1-.475.302-.015.043-.029.058-.058.058-.1 0-.23-.23-.23-.245a1.732 1.732 0 01-.072-.547c.057-1.411.605-3.298 1.08-4.68.547 0 1.08.029 1.627.057.302.015.49-.201.533-.432.072-.23-.029-.475-.317-.49a9.536 9.536 0 00-1.57.015z" aria-label="AbstractWidget" font-style="italic" font-size="14.4" font-family="SS Soapy Hands"/>
    <path fill="#F8F8F8" d="M214.2 342v.336l11.733-.999 11.734.972 11.733.33 11.733-1.78 11.734 1.017 11.733-.558 11.733.068 11.734.505L319.8 342m-105.6 9.6v.336l11.733-.999 11.734.972 11.733.33 11.733-1.78 11.734 1.017 11.733-.558 11.733.068 11.734.505 11.733.109" stroke="#383838" stroke-width="1.8"/>
    <path d="M138.6 433.903l12 .729 12 .248 12-1.336 12 .763 12-.419 12 .052 12 .378 12-.748 12 .83h.664l-1.42 11.52.519 11.52.755 11.52-.62 11.52.102 11.52v.082l-12-.12-12 .252-12 .073-12 .416-12 .102-12 .01-12-.51-12 .251-12 .287-12-.843h-.865l1.68-11.52-1.17-11.52.996-11.52-1.235-11.52.594-11.52v.252z" fill="#f8f8f8" stroke="#383838" stroke-width="1.8"/>
    <path d="M153.65 463.327l-3.274 2.61-3.44 1.426-2.742.124-3.524-1.784-3.326-1.166-2.525-2.368-1.324-2.71-.785-2.158-.77-2.818-1.248-2.426.96-2.368.84-2.594 3.155-2.052 2.22-2.662 2.747-.884 3.266-.76 4.188.451 2.294 1.082 2.668.49 3.243 3.323 1.13 3.508.491 2.393-.556 3.944.535.883-1.935 2.644z" fill="#c2c2c2" stroke="#383838" stroke-width="1.2"/>
    <path d="M147.568 460.972q-.698.358-1.465.538-.767.179-1.613.179-3.008 0-4.592-1.982-1.584-1.983-1.584-5.728 0-3.755 1.584-5.737 1.584-1.983 4.592-1.983.846 0 1.623.18.777.179 1.455.538v3.267q-.757-.698-1.47-1.021-.712-.324-1.469-.324-1.613 0-2.435 1.28-.822 1.28-.822 3.8 0 2.51.822 3.79.822 1.28 2.435 1.28.757 0 1.47-.324.712-.323 1.469-1.02z"/>
    <path d="M166.282 448.61c-.101 0-.23.058-.274.144-.216.418-.245.49-.317.936-.072.447-.086.576-.144 1.023-.115.82-.216 1.656-.288 2.491-.072.835-.13 1.67-.144 2.506-.36-1.124-.691-2.261-.936-3.442-.086-.374-.605-.403-.792-.043-.417.835-.705 1.713-.95 2.606-.043.173-.087.331-.13.504-.014-.72-.043-1.44-.057-2.16-.015-.749 0-1.497.028-2.246.03-.36.058-.72.072-1.08.03-.36.101-.59-.028-.922-.058-.158-.317-.13-.404-.014-.216.288-.244.504-.316.85-.072.36-.101.72-.13 1.08-.058.662-.072 1.31-.072 1.972v.346c.014.734.029 1.469.072 2.203.043.763.158 1.512.202 2.275.028.26.36.303.504.144.1-.029.187-.1.23-.201.346-.807.518-1.685.749-2.535.144-.475.302-.965.49-1.425.417 1.57.935 3.096 1.483 4.622.043.144.172.202.288.202.216 0 .46-.188.46-.432a33.2 33.2 0 01.173-4.925c.072-.821.187-1.627.303-2.448.057-.432.057-.533.115-.95.029-.231.057-.36.057-.49s-.014-.26-.072-.475c-.014-.087-.086-.13-.172-.116zm1.115 3.413a33.124 33.124 0 00-.201 3.399c0 .921.057 1.828.201 2.721a.365.365 0 00.36.288c.216 0 .432-.144.432-.403-.029-2.016-.187-3.989-.043-6.005.029-.475-.691-.46-.749 0zm.749-2.549a.55.55 0 01-.1-.086.596.596 0 00-.274-.072h-.015a.443.443 0 00-.187.043.62.62 0 00-.173.115.346.346 0 00-.1.173.46.46 0 00-.044.202c0 .043.015.086.015.13a.65.65 0 00.13.244c.042.015.071.043.114.072a.418.418 0 00.26.072.46.46 0 00.201-.043.346.346 0 00.173-.1c.043-.058.086-.116.1-.174a.29.29 0 00.058-.187v-.014c-.014-.043-.014-.101-.028-.144a.529.529 0 00-.13-.23zm5.097 2.549c-2.16-.806-4.176 1.93-4.176 4.205 0 .518.115 1.022.345 1.44.75 1.368 2.132.648 2.938-.26.173-.172.317-.36.46-.56-.028.518-.028 1.036.13 1.482.058.173.202.26.346.26a.4.4 0 00.36-.26c.274-.676.158-1.57.187-2.29l.087-2.332c.057-1.584.144-3.168.316-4.752v-.029c0-.187-.144-.273-.288-.273-.158 0-.33.1-.345.302-.115 1.022-.245 2.045-.36 3.067zm-3.269 4.781c-.432-1.728 1.066-4.565 3.067-3.874a.183.183 0 00.087.015c-.03.201-.044.403-.072.619v.014c0 .044 0 .087-.015.13-.043.418-.072.835-.1 1.238-.116.404-.317.778-.562 1.152-.303.461-.663.922-1.123 1.253-.62.447-1.095.159-1.282-.547zm9.201-4.32a.34.34 0 00-.087-.13 1.926 1.926 0 00-1.425-.59c-.792 0-1.599.432-2.117 1.109a5.158 5.158 0 00-.95 2.909c0 .446.086.892.244 1.281.605 1.455 2.333 1.57 3.27.389.158-.202.287-.403.402-.634 0 .144 0 .274.015.404 0 .676.1 1.44-.043 2.102-.245 1.094-1.685.374-2.376.1-.447-.172-.62.476-.303.706.533.404 1.31.778 2.03.778.188 0 .375-.029.548-.086.777-.26 1.037-1.08 1.065-1.815.015-.432.03-.864.03-1.296 0-1.627-.102-3.269-.116-4.881a.383.383 0 00-.187-.346zm-1.915 4.58c-.533.546-1.282.33-1.599-.36-.389-.85-.13-1.96.23-2.78.404-.922 1.642-1.987 2.607-1.18-.014.028-.014.057-.014.086a8.16 8.16 0 01-.447 2.822c-.173.504-.403 1.037-.777 1.411zm6.998-3.846c0-.69-.374-1.44-1.138-1.44-.518 0-1.05.375-1.396.706-.836.806-1.67 2.362-1.67 3.686 0 1.268.878 2.261 2.202 2.261a2.44 2.44 0 001.815-.806c.201-.23.029-.605-.245-.605a.277.277 0 00-.173.058c-.417.244-.921.46-1.382.46-.432 0-.835-.187-1.11-.676-.157-.274-.2-.62-.157-.98.144.044.288.058.446.058 1.282 0 2.808-1.397 2.808-2.722zm-1.354-.619c.821-.13.663.62.519 1.037-.245.778-1.368 1.656-2.247 1.426.173-.634.72-1.628 1.196-2.06.13-.13.33-.36.532-.403zm4.106-1.439c.087-.72.202-1.455.332-2.16.043-.231-.144-.39-.331-.39-.116 0-.23.072-.26.23a36.525 36.525 0 00-.446 2.391l-1.21.173c-.187.029-.273.158-.273.302 0 .216.187.461.475.418.288-.058.59-.072.878-.1a24.6 24.6 0 00-.216 3.729c.015.864.101 1.915.879 2.462a.936.936 0 00.576.202c.446 0 .806-.346.878-.879.03-.259-.201-.417-.432-.417-.187 0-.36.1-.403.302 0 .043-.029.058-.043.058-.087 0-.274-.23-.288-.245-.1-.158-.159-.374-.202-.547-.072-.346-.086-.706-.1-1.066a28.47 28.47 0 010-2.217c.028-.461.057-.936.1-1.397.547 0 1.095.029 1.642.057.302.015.446-.201.446-.432 0-.23-.144-.475-.446-.49a9.349 9.349 0 00-1.555.015zm6.846 4.924c-.173-.792-.331-1.598-.504-2.39-.346-1.541-.663-3.096-1.08-4.623.014-.187-.144-.288-.317-.288-.158 0-.317.072-.374.23a46.171 46.171 0 00-1.325 4.58c-.331 1.512-.72 3.081-.778 4.622v.015c0 .158.144.23.288.23.13 0 .26-.058.303-.187.201-.706.388-1.066.547-1.786.82-.1 1.483-.245 2.29-.374 0 .029 0 .043.014.072.086.389.158.72.245 1.123.086.36.244.778.504 1.066.115.115.46.043.504-.101.028-.101.043-.202.043-.303 0-.259-.072-.518-.13-.748-.072-.39-.158-.764-.23-1.138zm-2.635-2.405c.273-1.109.403-1.9.69-3.01.188 1.153.231 1.7.462 2.852.13.576.273 1.339.374 1.944-.763.029-1.195.043-1.944.187.144-.691.26-1.296.418-1.973zm5.576 3.672c-.835-.691-1.051-1.987-1.109-2.98-.072-1.325.173-2.65.663-3.889.201-.518.49-1.339 1.224-1.224.677.116 1.065.893 1.31 1.44.13.303.663.087.547-.23-.316-.835-1.036-1.858-2.016-1.858-.187 0-.388.044-.604.13-.548.23-.864.749-1.124 1.253a8.487 8.487 0 00-.662 1.958 9.325 9.325 0 00-.245 2.103c0 .633.072 1.267.23 1.872.26.979.807 2.102 1.901 2.419.202.057.39.086.59.086 1.023 0 1.945-.763 2.276-1.685.029-.057.029-.1.029-.144 0-.432-.72-.604-.893-.172-.302.82-1.238 1.627-2.117.921zm5.843-5.659c-1.685 0-2.246 1.858-2.246 3.24 0 .173.086.302.201.36-.057 1.21.13 2.462 1.196 3.038.259.144.518.202.763.202 1.555 0 2.592-2.462 2.592-3.874 0-1.526-.85-2.966-2.506-2.966zm-.806 5.587c-.706-.792-.634-2.117-.49-3.168.159-.777.519-1.555 1.296-1.555.144 0 .317.029.49.086 1.21.418 1.281 1.901.993 2.938-.172.634-.85 2.045-1.641 2.045-.216 0-.432-.101-.648-.346zm9.954-5.011c-.648-.648-1.526-.403-2.002.317a4.37 4.37 0 00-.46.979c-.303-.95-.75-1.814-1.412-1.814-.187 0-.388.057-.619.216-.46.316-.69.921-.835 1.512a143.96 143.96 0 01-.13-.922c-.057-.389-.633-.245-.633.115 0 .029.014.043.014.058.26 1.771.49 3.542.72 5.328.058.49.85.504.792 0-.173-1.512-.374-3.125.087-4.608.043-.159.086-.403.187-.533.1-.13.345-.346.533-.26.259.116.388.822.46 1.08.202.793.36 1.585.519 2.391.086.475.85.36.835-.115-.029-.907.1-1.858.49-2.693.201-.403.532-.763.936-.345.244.259.259.878.302 1.21.202 1.324.072 2.606.043 3.93-.014.26.23.418.447.418.187 0 .345-.086.374-.302.115-.75.187-1.484.187-2.232 0-.274-.014-.548-.029-.821-.086-.922-.115-2.232-.806-2.909zm3.321-.403c-.13 0-.26.014-.374.057-.634.188-1.037.864-1.325 1.412v.014a.388.388 0 00-.13.288c-.014.346-.029.706-.014 1.066-.03 1.05-.043 2.102-.072 3.139v.965c0 .734.029 1.468.173 2.203.028.201.172.273.316.273.202 0 .418-.144.447-.374.115-1.051 0-2.146 0-3.197v-.043c.144.144.317.288.504.403 1.397.893 2.707 0 3.125-1.454.086-.288.115-.59.115-.922 0-1.152-.475-2.491-1.253-3.153-.403-.346-.965-.677-1.512-.677zm.576 5.673c-.518-.072-.907-.446-1.166-.878-.216-.374-.317-.763-.375-1.166.015-.62.015-1.239.015-1.858a.399.399 0 00-.044-.187c.23-.389.533-.778.98-.792.547 0 1.108.518 1.368.965.403.734.662 1.944.432 2.75-.159.547-.548 1.267-1.21 1.166zm4.974-5.846c-1.685 0-2.247 1.858-2.247 3.24a.39.39 0 00.202.36c-.058 1.21.13 2.462 1.195 3.038.26.144.519.202.763.202 1.556 0 2.592-2.462 2.592-3.874 0-1.526-.85-2.966-2.505-2.966zm-.807 5.587c-.705-.792-.633-2.117-.49-3.168.16-.777.52-1.555 1.297-1.555.144 0 .317.029.49.086 1.21.418 1.281 1.901.993 2.938-.173.634-.85 2.045-1.642 2.045-.216 0-.432-.101-.648-.346zm6.312-5.429c-.965.058-1.498 1.498-1.685 2.29-.015.029-.015.058-.029.1a26.363 26.363 0 01-.086-1.482c0-.216-.159-.317-.317-.317-.173 0-.331.1-.331.317.028 1.843.23 3.614.705 5.414.058.187.202.274.346.274a.43.43 0 00.417-.49 10.903 10.903 0 01-.072-2.822c.072-.62.346-2.376 1.138-2.39 1.512-.058 1.008 4.578 1.109 5.5.014.23.23.374.417.374.144 0 .274-.086.317-.273a7.922 7.922 0 00.159-1.67c0-.879-.101-1.786-.23-2.607-.13-1.022-.678-2.218-1.858-2.218zm6.863 1.368c0-.69-.375-1.44-1.138-1.44-.518 0-1.051.375-1.397.706-.835.806-1.67 2.362-1.67 3.686 0 1.268.878 2.261 2.203 2.261a2.44 2.44 0 001.814-.806c.202-.23.03-.605-.244-.605a.277.277 0 00-.173.058c-.418.244-.922.46-1.383.46-.432 0-.835-.187-1.108-.676-.159-.274-.202-.62-.159-.98.144.044.288.058.447.058 1.281 0 2.808-1.397 2.808-2.722zm-1.354-.619c.82-.13.662.62.518 1.037-.244.778-1.368 1.656-2.246 1.426.173-.634.72-1.628 1.195-2.06.13-.13.331-.36.533-.403zm4.366-.749c-.965.058-1.498 1.498-1.685 2.29-.015.029-.015.058-.029.1a26.363 26.363 0 01-.086-1.482c0-.216-.159-.317-.317-.317-.173 0-.331.1-.331.317.028 1.843.23 3.614.705 5.414.058.187.202.274.346.274a.43.43 0 00.417-.49 10.903 10.903 0 01-.072-2.822c.072-.62.346-2.376 1.138-2.39 1.512-.058 1.008 4.578 1.109 5.5.014.23.23.374.417.374.144 0 .274-.086.317-.273a7.922 7.922 0 00.159-1.67c0-.879-.101-1.786-.23-2.607-.13-1.022-.678-2.218-1.858-2.218zm4.481-.69c.086-.72.202-1.455.331-2.16.043-.231-.144-.39-.331-.39-.115 0-.23.072-.26.23a36.525 36.525 0 00-.446 2.391l-1.21.173c-.186.029-.273.158-.273.302 0 .216.187.461.475.418.288-.058.59-.072.879-.1a24.6 24.6 0 00-.216 3.729c.014.864.1 1.915.878 2.462a.936.936 0 00.576.202c.447 0 .807-.346.879-.879.028-.259-.202-.417-.432-.417-.188 0-.36.1-.404.302 0 .043-.028.058-.043.058-.086 0-.273-.23-.288-.245-.1-.158-.158-.374-.201-.547-.072-.346-.087-.706-.101-1.066a28.47 28.47 0 010-2.217c.029-.461.057-.936.1-1.397.548 0 1.095.029 1.642.057.303.015.447-.201.447-.432 0-.23-.144-.475-.447-.49a9.349 9.349 0 00-1.555.015z" aria-label="WidgetAComponent" font-size="14.4" font-family="SS Soapy Hands"/>
    <path fill="#F8F8F8" d="M127.8 472.8v.336l11.76-.999 11.76.972 11.76.33 11.76-1.78 11.76 1.017 11.76-.558 11.76.068 11.76.505 11.76-.997 11.76 1.106m-117.6 9.6v.336l11.76-.999 11.76.972 11.76.33 11.76-1.78 11.76 1.017 11.76-.558 11.76.068 11.76.505 11.76-.997 11.76 1.106" stroke="#383838" stroke-width="1.8"/>
    <path d="M300.6 433.903l12 .729 12 .248 12-1.336 12 .763 12-.419 12 .052 12 .378 12-.748 12 .83h.664l-1.42 11.52.519 11.52.755 11.52-.62 11.52.102 11.52v.082l-12-.12-12 .252-12 .073-12 .416-12 .102-12 .01-12-.51-12 .251-12 .287-12-.843h-.865l1.68-11.52-1.17-11.52.996-11.52-1.235-11.52.594-11.52v.252z" fill="#f8f8f8" stroke="#383838" stroke-width="1.8"/>
    <path d="M315.65 463.327l-3.274 2.61-3.44 1.426-2.742.124-3.524-1.784-3.326-1.166-2.525-2.368-1.324-2.71-.785-2.158-.77-2.818-1.248-2.426.96-2.368.84-2.594 3.155-2.052 2.22-2.662 2.747-.884 3.266-.76 4.189.451 2.294 1.082 2.667.49 3.243 3.323 1.13 3.508.491 2.393-.556 3.944.535.883-1.935 2.644z" fill="#c2c2c2" stroke="#383838" stroke-width="1.2"/>
    <path d="M309.568 460.972q-.698.358-1.465.538-.767.179-1.613.179-3.008 0-4.592-1.982-1.584-1.983-1.584-5.728 0-3.755 1.584-5.737 1.584-1.983 4.592-1.983.846 0 1.623.18.777.179 1.455.538v3.267q-.757-.698-1.47-1.021-.712-.324-1.469-.324-1.613 0-2.435 1.28-.822 1.28-.822 3.8 0 2.51.822 3.79.822 1.28 2.435 1.28.757 0 1.47-.324.712-.323 1.469-1.02z"/>
    <path d="M328.282 448.61c-.101 0-.23.058-.274.144-.216.418-.245.49-.317.936-.072.447-.086.576-.144 1.023-.115.82-.216 1.656-.288 2.491-.072.835-.13 1.67-.144 2.506-.36-1.124-.691-2.261-.936-3.442-.086-.374-.605-.403-.792-.043-.417.835-.705 1.713-.95 2.606-.043.173-.087.331-.13.504-.014-.72-.043-1.44-.057-2.16-.015-.749 0-1.497.028-2.246.03-.36.058-.72.072-1.08.03-.36.101-.59-.028-.922-.058-.158-.317-.13-.404-.014-.216.288-.244.504-.316.85-.072.36-.101.72-.13 1.08-.058.662-.072 1.31-.072 1.972v.346c.014.734.029 1.469.072 2.203.043.763.158 1.512.202 2.275.028.26.36.303.504.144.1-.029.187-.1.23-.201.346-.807.518-1.685.749-2.535.144-.475.302-.965.49-1.425.417 1.57.935 3.096 1.483 4.622.043.144.172.202.288.202.216 0 .46-.188.46-.432a33.2 33.2 0 01.173-4.925c.072-.821.187-1.627.303-2.448.057-.432.057-.533.115-.95.029-.231.057-.36.057-.49s-.014-.26-.072-.475c-.014-.087-.086-.13-.172-.116zm1.128 3.413a33.124 33.124 0 00-.201 3.399c0 .921.057 1.828.201 2.721a.365.365 0 00.36.288c.216 0 .432-.144.432-.403-.028-2.016-.187-3.989-.043-6.005.029-.475-.691-.46-.749 0zm.75-2.549c-.044-.028-.073-.057-.102-.086a.596.596 0 00-.273-.072h-.015a.443.443 0 00-.187.043c-.057.029-.115.058-.173.115a.346.346 0 00-.1.173.46.46 0 00-.044.202c0 .043.015.086.015.13.029.1.072.172.13.244.043.015.071.043.115.072a.418.418 0 00.259.072.46.46 0 00.201-.043.346.346 0 00.173-.1c.043-.058.087-.116.101-.174a.29.29 0 00.058-.187v-.014c-.015-.043-.015-.101-.03-.144a.529.529 0 00-.129-.23zm5.11 2.549c-2.16-.806-4.177 1.93-4.177 4.205 0 .518.115 1.022.346 1.44.748 1.368 2.13.648 2.937-.26.173-.172.317-.36.461-.56-.029.518-.029 1.036.13 1.482.057.173.201.26.345.26a.4.4 0 00.36-.26c.274-.676.159-1.57.187-2.29.03-.777.058-1.554.087-2.332.057-1.584.144-3.168.317-4.752v-.029c0-.187-.144-.273-.288-.273-.159 0-.332.1-.346.302-.115 1.022-.245 2.045-.36 3.067zm-3.27 4.781c-.432-1.728 1.066-4.565 3.067-3.874a.183.183 0 00.087.015c-.029.201-.043.403-.072.619v.014c0 .044 0 .087-.015.13-.043.418-.072.835-.1 1.238-.116.404-.317.778-.562 1.152-.302.461-.662.922-1.123 1.253-.62.447-1.095.159-1.282-.547zm9.214-4.32a.34.34 0 00-.086-.13 1.926 1.926 0 00-1.426-.59c-.792 0-1.598.432-2.117 1.109a5.158 5.158 0 00-.95 2.909c0 .446.086.892.245 1.281.605 1.455 2.333 1.57 3.269.389.158-.202.288-.403.403-.634 0 .144 0 .274.014.404 0 .676.101 1.44-.043 2.102-.245 1.094-1.685.374-2.376.1-.446-.172-.62.476-.302.706.532.404 1.31.778 2.03.778.187 0 .374-.029.547-.086.778-.26 1.037-1.08 1.066-1.815.014-.432.029-.864.029-1.296 0-1.627-.101-3.269-.116-4.881a.383.383 0 00-.187-.346zm-1.915 4.58c-.533.546-1.282.33-1.598-.36-.39-.85-.13-1.96.23-2.78.403-.922 1.642-1.987 2.606-1.18-.014.028-.014.057-.014.086a8.16 8.16 0 01-.446 2.822c-.173.504-.404 1.037-.778 1.411zm7.011-3.846c0-.69-.374-1.44-1.137-1.44-.519 0-1.051.375-1.397.706-.835.806-1.67 2.362-1.67 3.686 0 1.268.878 2.261 2.203 2.261a2.44 2.44 0 001.814-.806c.202-.23.029-.605-.245-.605a.277.277 0 00-.172.058c-.418.244-.922.46-1.383.46-.432 0-.835-.187-1.109-.676-.158-.274-.201-.62-.158-.98.144.044.288.058.446.058 1.282 0 2.808-1.397 2.808-2.722zm-1.353-.619c.82-.13.662.62.518 1.037-.245.778-1.368 1.656-2.246 1.426.173-.634.72-1.628 1.195-2.06.13-.13.331-.36.533-.403zm4.119-1.439c.087-.72.202-1.455.331-2.16.044-.231-.144-.39-.33-.39-.116 0-.231.072-.26.23a36.525 36.525 0 00-.446 2.391l-1.21.173c-.187.029-.274.158-.274.302 0 .216.188.461.476.418.288-.058.59-.072.878-.1a24.6 24.6 0 00-.216 3.729c.014.864.1 1.915.878 2.462a.936.936 0 00.576.202c.447 0 .807-.346.879-.879.029-.259-.202-.417-.432-.417-.187 0-.36.1-.403.302 0 .043-.03.058-.044.058-.086 0-.273-.23-.288-.245-.1-.158-.158-.374-.201-.547-.072-.346-.087-.706-.1-1.066a28.47 28.47 0 010-2.217c.028-.461.057-.936.1-1.397.547 0 1.094.029 1.641.057.303.015.447-.201.447-.432 0-.23-.144-.475-.447-.49a9.349 9.349 0 00-1.555.015zm4.986 2.174a9.97 9.97 0 00.605-.98c.49-.878.95-1.9.75-2.923-.13-.648-.62-.893-1.182-.893-.23 0-.49.044-.749.116a3.07 3.07 0 00-1.137.59v-.13c-.029-.273-.46-.259-.49.015-.029.245-.043.49-.072.749-.072.115-.158.244-.216.374-.014.029-.029.058-.014.072 0 .1.086.144.201.144-.057 1.051-.028 2.102 0 3.154.03 1.382.058 2.808.216 4.204a.275.275 0 00.044.274v.058s.014.014.014.043c.072.13.274.245.46.245a.42.42 0 00.13-.03c.706.116 1.498-.431 2.016-.849.764-.619 1.47-1.425 1.47-2.405 0-.043-.015-.1-.015-.144-.058-.892-.835-1.57-1.757-1.684h-.274zm.173-4.19c.26.028.331.114.403.345.13.374.058.85-.043 1.21-.345 1.267-1.166 2.275-2.001 3.268a.031.031 0 00-.03.029c-.014-.13-.028-.245-.028-.374-.072-1.224-.058-2.463-.13-3.701.346-.317.75-.576 1.239-.691.187-.058.389-.101.59-.087zm-.057 7.775c-.375.303-.85.72-1.368.749a87.992 87.992 0 00-.188-2.794c.015-.014.044-.028.058-.043.331-.245.62-.561.893-.878.806-.23 1.814.36 1.67 1.382-.086.663-.561 1.181-1.065 1.584zm4.514.432c-.835-.691-1.051-1.987-1.109-2.98-.072-1.325.173-2.65.663-3.889.201-.518.49-1.339 1.224-1.224.677.116 1.065.893 1.31 1.44.13.303.663.087.547-.23-.316-.835-1.036-1.858-2.016-1.858-.187 0-.388.044-.604.13-.548.23-.864.749-1.124 1.253a8.487 8.487 0 00-.662 1.958 9.325 9.325 0 00-.245 2.103c0 .633.072 1.267.23 1.872.26.979.807 2.102 1.901 2.419.202.057.39.086.59.086 1.023 0 1.945-.763 2.276-1.685.029-.057.029-.1.029-.144 0-.432-.72-.604-.893-.172-.302.82-1.238 1.627-2.117.921zm5.856-5.659c-1.685 0-2.246 1.858-2.246 3.24 0 .173.086.302.201.36-.057 1.21.13 2.462 1.196 3.038.259.144.518.202.763.202 1.555 0 2.592-2.462 2.592-3.874 0-1.526-.85-2.966-2.506-2.966zm-.806 5.587c-.706-.792-.634-2.117-.49-3.168.159-.777.519-1.555 1.296-1.555.144 0 .317.029.49.086 1.21.418 1.281 1.901.993 2.938-.172.634-.85 2.045-1.641 2.045-.216 0-.432-.101-.648-.346zm9.968-5.011c-.649-.648-1.527-.403-2.002.317a4.37 4.37 0 00-.461.979c-.302-.95-.749-1.814-1.411-1.814-.187 0-.39.057-.62.216-.46.316-.69.921-.835 1.512a143.96 143.96 0 01-.13-.922c-.057-.389-.633-.245-.633.115 0 .029.015.043.015.058.259 1.771.49 3.542.72 5.328.057.49.85.504.792 0-.173-1.512-.375-3.125.086-4.608.043-.159.086-.403.187-.533.1-.13.346-.346.533-.26.26.116.389.822.46 1.08.202.793.36 1.585.52 2.391.086.475.849.36.834-.115-.028-.907.101-1.858.49-2.693.202-.403.533-.763.936-.345.245.259.26.878.302 1.21.202 1.324.072 2.606.044 3.93-.015.26.23.418.446.418.187 0 .346-.086.374-.302.116-.75.188-1.484.188-2.232 0-.274-.015-.548-.03-.821-.086-.922-.114-2.232-.806-2.909zm3.333-.403c-.13 0-.259.014-.374.057-.634.188-1.037.864-1.325 1.412v.014a.388.388 0 00-.13.288c-.014.346-.028.706-.014 1.066-.029 1.05-.043 2.102-.072 3.139v.965c0 .734.029 1.468.173 2.203.029.201.173.273.317.273.201 0 .417-.144.446-.374.115-1.051 0-2.146 0-3.197v-.043c.144.144.317.288.504.403 1.397.893 2.707 0 3.125-1.454.086-.288.115-.59.115-.922 0-1.152-.475-2.491-1.253-3.153-.403-.346-.964-.677-1.512-.677zm.576 5.673c-.518-.072-.907-.446-1.166-.878-.216-.374-.317-.763-.374-1.166.014-.62.014-1.239.014-1.858a.399.399 0 00-.043-.187c.23-.389.533-.778.979-.792.547 0 1.109.518 1.368.965.403.734.662 1.944.432 2.75-.158.547-.547 1.267-1.21 1.166zm4.987-5.846c-1.684 0-2.246 1.858-2.246 3.24 0 .173.086.302.202.36-.058 1.21.13 2.462 1.195 3.038.259.144.518.202.763.202 1.555 0 2.592-2.462 2.592-3.874 0-1.526-.85-2.966-2.506-2.966zm-.806 5.587c-.706-.792-.634-2.117-.49-3.168.159-.777.519-1.555 1.296-1.555.144 0 .317.029.49.086 1.21.418 1.282 1.901.994 2.938-.173.634-.85 2.045-1.642 2.045-.216 0-.432-.101-.648-.346zm6.324-5.429c-.965.058-1.497 1.498-1.685 2.29-.014.029-.014.058-.028.1a26.363 26.363 0 01-.087-1.482c0-.216-.158-.317-.317-.317-.172 0-.33.1-.33.317.028 1.843.23 3.614.705 5.414.057.187.201.274.345.274a.43.43 0 00.418-.49 10.903 10.903 0 01-.072-2.822c.072-.62.346-2.376 1.138-2.39 1.512-.058 1.008 4.578 1.108 5.5.015.23.23.374.418.374.144 0 .274-.086.317-.273a7.922 7.922 0 00.158-1.67c0-.879-.1-1.786-.23-2.607-.13-1.022-.677-2.218-1.858-2.218zm6.876 1.368c0-.69-.374-1.44-1.137-1.44-.519 0-1.051.375-1.397.706-.835.806-1.67 2.362-1.67 3.686 0 1.268.878 2.261 2.203 2.261a2.44 2.44 0 001.814-.806c.202-.23.029-.605-.245-.605a.277.277 0 00-.172.058c-.418.244-.922.46-1.383.46-.432 0-.835-.187-1.109-.676-.158-.274-.201-.62-.158-.98.144.044.288.058.446.058 1.282 0 2.808-1.397 2.808-2.722zm-1.353-.619c.82-.13.662.62.518 1.037-.245.778-1.368 1.656-2.246 1.426.173-.634.72-1.628 1.195-2.06.13-.13.331-.36.533-.403zm4.378-.749c-.964.058-1.497 1.498-1.684 2.29-.015.029-.015.058-.03.1a26.363 26.363 0 01-.086-1.482c0-.216-.158-.317-.316-.317-.173 0-.332.1-.332.317.03 1.843.23 3.614.706 5.414.058.187.202.274.346.274a.43.43 0 00.417-.49 10.903 10.903 0 01-.072-2.822c.072-.62.346-2.376 1.138-2.39 1.512-.058 1.008 4.578 1.109 5.5.014.23.23.374.417.374.144 0 .274-.086.317-.273a7.922 7.922 0 00.158-1.67c0-.879-.1-1.786-.23-2.607-.13-1.022-.677-2.218-1.858-2.218zm4.495-.69c.086-.72.202-1.455.331-2.16.043-.231-.144-.39-.33-.39-.116 0-.231.072-.26.23a36.525 36.525 0 00-.447 2.391l-1.21.173c-.186.029-.273.158-.273.302 0 .216.187.461.475.418.288-.058.59-.072.879-.1a24.6 24.6 0 00-.216 3.729c.014.864.1 1.915.878 2.462a.936.936 0 00.576.202c.447 0 .807-.346.879-.879.028-.259-.202-.417-.432-.417-.188 0-.36.1-.404.302 0 .043-.028.058-.043.058-.086 0-.273-.23-.288-.245-.1-.158-.158-.374-.201-.547-.072-.346-.087-.706-.101-1.066a28.47 28.47 0 010-2.217c.029-.461.057-.936.1-1.397.548 0 1.095.029 1.642.057.303.015.447-.201.447-.432 0-.23-.144-.475-.447-.49a9.349 9.349 0 00-1.555.015z" aria-label="WidgetBComponent" font-size="14.4" font-family="SS Soapy Hands"/>
    <path fill="#F8F8F8" d="M289.8 472.8v.336l11.76-.999 11.76.972 11.76.33 11.76-1.78 11.76 1.017 11.76-.558 11.76.068 11.76.505 11.76-.997 11.76 1.106m-117.6 9.6v.336l11.76-.999 11.76.972 11.76.33 11.76-1.78 11.76 1.017 11.76-.558 11.76.068 11.76.505 11.76-.997 11.76 1.106" stroke="#383838" stroke-width="1.8"/>
    <path fill="none" d="M56.868 66.324l.093.062 1.489 2.45 2.034 2.815 1.857 2.696 1.272 2.305 2.08 2.846-.033-.024 1.88 2.674 2.048 2.798 2.165 2.883 1.761 2.588 2.328 3.001.229.187 1.748 2.36 2.418 2.904 2.5 2.97 2.024 2.584 2.274 2.787.027.025 2.354 2.522 2.475 2.634 2.416 2.58 2.528 2.684L99 120l.242.263 1.888 1.74 1.731 1.57 1.96 1.819 1.971 1.83 1.631 1.46-.245-.295 2.485 2.242 1.677 1.267 2.292 2.009 1.659 1.245 2.178 1.87-.023-.029 2.34 1.927 1.82 1.247 2.128 1.648 2.152 1.681 1.968 1.439.128.18 1.959 1.3 2.178 1.608 1.823 1.107 2.353 1.854 2.001 1.358" stroke="#383838" stroke-width="1.2"/>
    <path d="M142.984 153.665l-1.04-1.88-1.178-1.964-1.626-2.243-1.004-1.857-.031-.006.118 1.307.271 1.337.379 1.357.01 1.287.526 1.385.042.218-1.423-.21-1.301.424-1.286.502-1.373.051-1.327.289.005.026 2.32.38 2.34.503 2.33.444 2.352.556 2.284.189.072.044z" fill="#383838" stroke="#383838" stroke-width="1.2"/>
    <path d="M102.119 115.711c-1.061-.109-.999-1.763-.843-2.511a7.917 7.917 0 01.796-2.122c.187-.328.406-.811.733-1.014.671-.421.936.359 1.014.874.078.499.796.327.796-.14v-.063c-.125-.858-.687-1.732-1.498-1.732-.218 0-.468.078-.733.25-1.108.702-1.794 2.465-2.06 3.697a5.16 5.16 0 00-.124 1.123c0 .967.296 1.981 1.17 2.45.234.14.5.202.749.202.858 0 1.731-.64 2.262-1.232.39-.468-.281-1.155-.687-.687-.358.406-.998.968-1.575.905zm5.38-6.287c-1.826 0-2.434 2.013-2.434 3.51 0 .188.094.328.218.39-.062 1.31.14 2.668 1.295 3.292.281.156.562.218.827.218 1.685 0 2.808-2.667 2.808-4.196 0-1.654-.92-3.214-2.714-3.214zm-.874 6.053c-.764-.858-.686-2.293-.53-3.432.171-.842.561-1.685 1.404-1.685.156 0 .343.032.53.094 1.31.452 1.388 2.06 1.076 3.182-.187.687-.92 2.216-1.778 2.216-.234 0-.468-.11-.702-.375zm6.81-5.881c-1.045.062-1.622 1.622-1.825 2.48-.016.032-.016.063-.031.11a28.56 28.56 0 01-.094-1.607c0-.234-.171-.343-.343-.343-.187 0-.359.109-.359.343.031 1.997.25 3.915.765 5.865.062.203.218.297.374.297a.467.467 0 00.452-.53 11.812 11.812 0 01-.078-3.058c.078-.671.375-2.574 1.233-2.59 1.638-.062 1.092 4.961 1.201 5.96.016.249.25.405.452.405.156 0 .297-.094.344-.296a8.583 8.583 0 00.171-1.81c0-.952-.109-1.934-.25-2.824-.14-1.107-.733-2.402-2.012-2.402zm5.817-3.604c-.905 0-1.42 1.14-1.591 1.888-.172.718-.25 1.498-.28 2.278l-.78.14c-.204.016-.313.187-.329.374 0 .188.125.39.375.406h.171l.36-.016h.17c0 .063 0 .11-.015.172v.359c-.015.047-.015.109-.015.171-.047 1.545-.047 3.167.265 4.696a.354.354 0 00.39.28c.203 0 .421-.14.421-.39-.047-1.809-.172-3.572-.078-5.366l1.498-.14c.64-.047.624-1.06 0-.983-.468.063-.952.11-1.436.156.063-.686.063-1.435.266-2.09.062-.234.265-.858.514-.952.734-.28.92 1.248.92 1.607 0 .218.157.343.328.343.328 0 .36-.25.36-.515 0-.904-.328-2.262-1.358-2.402-.062-.016-.11-.016-.156-.016zm2.318 3.791c-.125 1.201-.218 2.45-.218 3.682 0 .998.062 1.981.218 2.948a.396.396 0 00.39.312c.234 0 .468-.156.468-.437-.031-2.184-.203-4.32-.047-6.505.031-.515-.749-.499-.811 0zm.811-2.761a.679.679 0 01-.11-.094.645.645 0 00-.295-.078h-.016a.48.48 0 00-.203.047.657.657 0 00-.187.125.374.374 0 00-.11.187.498.498 0 00-.046.219c0 .046.016.093.016.14a.7.7 0 00.14.265c.047.016.078.047.125.078a.452.452 0 00.28.078.498.498 0 00.219-.047.374.374 0 00.187-.109.59.59 0 00.11-.187.314.314 0 00.062-.203v-.015c-.016-.047-.016-.11-.031-.156-.016-.094-.078-.172-.14-.25zm5.963 3.26a.368.368 0 00-.094-.14 2.088 2.088 0 00-1.544-.64c-.858 0-1.732.468-2.293 1.202-.609.826-1.03 2.028-1.03 3.15 0 .484.094.968.265 1.39.655 1.575 2.527 1.7 3.541.42a3.89 3.89 0 00.437-.686c0 .156 0 .296.016.437 0 .733.109 1.56-.047 2.277-.265 1.186-1.825.406-2.574.11-.484-.188-.67.514-.328.764.578.437 1.42.842 2.2.842.203 0 .406-.03.593-.093.842-.281 1.123-1.17 1.154-1.966a41.1 41.1 0 00.031-1.404c0-1.763-.109-3.541-.124-5.288a.414.414 0 00-.203-.375zm-2.075 4.961c-.577.593-1.388.359-1.732-.39-.42-.92-.14-2.121.25-3.01.437-.999 1.778-2.153 2.824-1.28-.016.031-.016.063-.016.094a8.84 8.84 0 01-.484 3.057c-.187.546-.436 1.124-.842 1.53zm7.835-5.07c.063-.515-.748-.593-.873-.125-.265.983-.437 1.982-.64 2.98-.156.686-.359 2.496-1.201 2.636-.406.063-.468-.093-.67-.452a4.398 4.398 0 01-.297-.749 7.4 7.4 0 01-.25-1.56c-.062-1.03 0-2.09.14-3.12a.407.407 0 00-.405-.452c-.14 0-.265.078-.296.265-.14 1.076-.344 2.137-.344 3.214 0 .312.016.624.063.951.125 1.014.499 2.73 1.7 2.964.094.031.187.031.281.031.952 0 1.482-.982 1.763-1.81.125.5.327.968.593 1.436.28.468.936.187.936-.265a.494.494 0 00-.063-.25c-.92-1.778-.655-3.79-.437-5.694zm2.047.655a.118.118 0 00-.03.063c0-.39.015-.796.03-1.201.016-.266-.187-.39-.39-.406a.428.428 0 00-.436.406 65.612 65.612 0 00-.11 3.915c0 .905.016 1.794.047 2.699 0 .28.219.421.453.421.218 0 .436-.14.42-.421-.015-.406-.03-.796-.03-1.201.015-.983.436-4.743 1.716-4.743.171 0 .358.078.577.266a.42.42 0 00.265.109.413.413 0 00.406-.406c0-.452-.765-.827-1.155-.827-.702 0-1.42.624-1.763 1.326zm6.976.25c0-.749-.406-1.56-1.232-1.56-.562 0-1.14.406-1.514.764-.904.874-1.81 2.559-1.81 3.994 0 1.373.952 2.45 2.388 2.45.717 0 1.45-.297 1.965-.874.219-.25.031-.656-.265-.656a.3.3 0 00-.187.063c-.453.265-.999.499-1.498.499-.468 0-.905-.203-1.2-.733-.173-.297-.22-.671-.173-1.061.156.047.312.062.484.062 1.388 0 3.042-1.513 3.042-2.948zm-1.466-.67c.889-.141.717.67.561 1.122-.265.843-1.482 1.794-2.433 1.545.187-.687.78-1.763 1.294-2.231.14-.14.36-.39.578-.437zm3.875 2.105c-.234-.187-.592-.421-.764-.686-.374-.609.078-.967.546-1.248.359-.219.92-.437 1.42-.437.358 0 .702.125.904.468a.37.37 0 00.328.203c.265 0 .53-.297.359-.593-.343-.624-1.03-.89-1.763-.89-1.342 0-2.855.874-2.855 2.122v.125c.11 1.077 1.576 1.935 2.387 2.465.406.265 1.607.827 1.342 1.466a.494.494 0 01-.5.344c-.561 0-1.372-.593-1.622-.812a.438.438 0 00-.296-.109c-.281 0-.546.297-.375.624.406.733 1.342 1.248 2.215 1.248.858 0 1.545-.53 1.545-1.45 0-.188-.047-.39-.125-.578-.437-1.076-1.888-1.56-2.746-2.262zm7.882.39c-1.497-.468.858-1.295 1.217-1.388.437-.11.359-.858-.11-.811-.467.046-2.526.187-1.668-.78.483-.546 1.544-.624 2.184-.39.374.14.53-.453.171-.593-1.076-.406-2.948-.203-3.37 1.092a1.19 1.19 0 00-.062.374c0 .53.437.827.968.983-.562.374-.936.905-.64 1.622.468 1.155 2.246.765 3.136.484.218-.078.296-.234.296-.406 0-.234-.203-.483-.515-.42-.437.108-1.17.374-1.607.233zm.796-6.458c.015-.219-.187-.328-.359-.328-.156 0-.28.078-.312.234a7.755 7.755 0 00-.047 1.7c.031.437.702.437.687 0-.047-.53-.016-1.076.03-1.606zm-.593 8.034c-.094.67-.094 1.326.094 1.997.062.187.202.265.343.265.218-.016.452-.187.39-.468-.125-.562-.203-1.139-.156-1.7.015-.375-.609-.469-.67-.094zm10.121-4.306c.062-.515-.75-.593-.874-.125-.265.983-.437 1.982-.64 2.98-.156.686-.358 2.496-1.2 2.636-.406.063-.469-.093-.672-.452a4.398 4.398 0 01-.296-.749 7.4 7.4 0 01-.25-1.56c-.062-1.03 0-2.09.14-3.12a.407.407 0 00-.405-.452c-.14 0-.265.078-.296.265-.14 1.076-.343 2.137-.343 3.214 0 .312.015.624.062.951.125 1.014.5 2.73 1.7 2.964.094.031.188.031.281.031.952 0 1.482-.982 1.763-1.81.125.5.328.968.593 1.436.28.468.936.187.936-.265a.494.494 0 00-.063-.25c-.92-1.778-.655-3.79-.436-5.694zm2.92 2.34c-.234-.187-.592-.421-.764-.686-.374-.609.078-.967.546-1.248.359-.219.92-.437 1.42-.437.358 0 .702.125.904.468a.37.37 0 00.328.203c.265 0 .53-.297.359-.593-.343-.624-1.03-.89-1.763-.89-1.342 0-2.855.874-2.855 2.122v.125c.11 1.077 1.576 1.935 2.387 2.465.406.265 1.607.827 1.342 1.466a.494.494 0 01-.5.344c-.561 0-1.372-.593-1.622-.812a.438.438 0 00-.296-.109c-.281 0-.546.297-.375.624.406.733 1.342 1.248 2.215 1.248.858 0 1.545-.53 1.545-1.45 0-.188-.047-.39-.125-.578-.437-1.076-1.888-1.56-2.746-2.262zm8.022-1.435c0-.749-.406-1.56-1.232-1.56-.562 0-1.14.406-1.514.764-.904.874-1.81 2.559-1.81 3.994 0 1.373.952 2.45 2.388 2.45.717 0 1.45-.297 1.965-.874.219-.25.031-.656-.265-.656a.3.3 0 00-.187.063c-.453.265-.999.499-1.498.499-.468 0-.905-.203-1.201-.733-.172-.297-.218-.671-.172-1.061.156.047.312.062.484.062 1.388 0 3.042-1.513 3.042-2.948zm-1.466-.67c.889-.141.717.67.561 1.122-.265.843-1.482 1.794-2.433 1.545.187-.687.78-1.763 1.294-2.231.14-.14.36-.39.578-.437zm3.875 2.105c-.234-.187-.593-.421-.764-.686-.375-.609.078-.967.546-1.248.359-.219.92-.437 1.42-.437.358 0 .701.125.904.468a.37.37 0 00.328.203c.265 0 .53-.297.359-.593-.344-.624-1.03-.89-1.763-.89-1.342 0-2.855.874-2.855 2.122v.125c.11 1.077 1.576 1.935 2.387 2.465.405.265 1.607.827 1.341 1.466a.494.494 0 01-.499.344c-.561 0-1.373-.593-1.622-.812a.438.438 0 00-.297-.109c-.28 0-.546.297-.374.624.406.733 1.342 1.248 2.215 1.248.858 0 1.545-.53 1.545-1.45 0-.188-.047-.39-.125-.578-.437-1.076-1.888-1.56-2.746-2.262z" aria-label="configures &amp; uses" font-size="15.6" font-family="SS Soapy Hands"/>
    <path fill="none" d="M191.4 90.096h.336l-.999 13.092.972 13.092.33 13.092-1.78 13.092 1.141 13.092" stroke="#383838" stroke-width="1.2"/>
    <path d="M184.524 85.193l1.909-4.72 1.758-4.772 1.26-4.947 1.949-4.706-.03-.01 1.549 4.754 1.696 4.805 1.8 4.842 1.444 4.718 1.941 4.891v.221l-3.36-.473-3.36.173-3.36.252-3.36-.207-3.36.034.08.028z" fill="none" stroke="#383838" stroke-width="1.2"/>
    <path fill="none" d="M298.164 82.668l.231.244-9.253 7.373-7.899 8.805-8.34 8.339-9.79 6.804-7.868 8.838-8.95 7.693-8.52 8.149-8.22 8.465-8.491 8.178" stroke="#383838" stroke-width="1.2" stroke-dasharray="7,7"/>
    <path d="M297.11 74.21l4.74-1.856 4.676-2.003 4.46-2.485 4.758-1.818-.028-.014-2.456 4.455-2.318 4.527-2.22 4.577-2.555 4.405-2.087 4.646.16.152-2.652-2.766-2.183-2.322-2.126-2.268-2.46-2.583-2.283-2.417.034.077zM185.112 213.732l.112.011-.589 2.567.066 2.631-.147 2.611-.848 2.541.122 2.637h-.041l-.182 2.768.027 2.769.172 2.768-.328 2.768.373 2.769.292.04-.24 2.691.613 2.81.718 2.823.111 2.74.43 2.784.035.011.835 2.611.991 2.664.916 2.639 1.06 2.687.59 2.528.301.193 2.182 3.405 1.987 3.281 2.271 3.463 2.285 3.472 1.862 3.2-.275-.268 3.38 3.44 2.473 2.556 3.163 3.227 2.452 2.536 3.035 3.103" fill="none" stroke="#383838" stroke-width="1.2"/>
    <path d="M219.178 301.249l-.822-2.015-.967-2.086-1.44-2.318-.785-1.997-.031-.003-.019 1.34.138 1.354.246 1.363-.128 1.33.396 1.377.02.22-1.395-.35-1.337.292-1.33.372-1.37-.086-1.35.154.007.027 2.262.61 2.296.731 2.28.673 2.31.782 2.209.425.075.037z" fill="#383838" stroke="#383838" stroke-width="1.2"/>
    <g aria-label="creates &amp; uses instance of" font-size="15.6" font-family="SS Soapy Hands">
        <path d="M193.319 263.311c-1.061-.109-.999-1.763-.843-2.511a7.917 7.917 0 01.796-2.122c.187-.328.406-.811.733-1.014.671-.421.936.359 1.014.874.078.499.796.327.796-.14v-.063c-.125-.858-.687-1.732-1.498-1.732-.218 0-.468.078-.733.25-1.108.702-1.794 2.465-2.06 3.697a5.16 5.16 0 00-.124 1.123c0 .967.296 1.981 1.17 2.45.234.14.5.202.749.202.858 0 1.731-.64 2.262-1.232.39-.468-.281-1.155-.687-.687-.358.406-.998.968-1.575.905zm4.315-4.883a.118.118 0 00-.031.063c0-.39.016-.796.031-1.201.016-.266-.187-.39-.39-.406a.428.428 0 00-.437.406 65.612 65.612 0 00-.109 3.915c0 .905.016 1.794.047 2.699 0 .28.218.421.452.421.219 0 .437-.14.422-.421-.016-.406-.032-.796-.032-1.201.016-.983.437-4.743 1.716-4.743.172 0 .36.078.578.266a.42.42 0 00.265.109.413.413 0 00.405-.406c0-.452-.764-.827-1.154-.827-.702 0-1.42.624-1.763 1.326zm6.936.25c0-.749-.405-1.56-1.232-1.56-.562 0-1.139.406-1.513.764-.905.874-1.81 2.559-1.81 3.994 0 1.373.952 2.45 2.387 2.45.718 0 1.45-.297 1.966-.874.218-.25.03-.656-.266-.656a.3.3 0 00-.187.063c-.452.265-.998.499-1.497.499-.468 0-.905-.203-1.202-.733-.171-.297-.218-.671-.171-1.061.156.047.312.062.483.062 1.389 0 3.042-1.513 3.042-2.948zm-1.466-.67c.89-.141.718.67.562 1.122-.266.843-1.482 1.794-2.434 1.545.187-.687.78-1.763 1.295-2.231.14-.14.359-.39.577-.437zm7.143 2.355c-.062-.905-.109-1.997-.53-2.808-.218-.406-.5-.593-.811-.593-.687 0-2.465 1.201-2.995 1.591-.312.25-.125.718.187.718a.378.378 0 00.203-.063 9.346 9.346 0 011.747-1.03c.156-.077.468-.311.655-.311.406 0 .452.842.5 1.154.077.53.124 1.061.155 1.607-.359-.359-.858-.64-1.388-.64-1.498 0-2.84 1.654-2.84 3.105 0 .983.625 1.497 1.545 1.497.733 0 2.075-.452 2.792-.733.016.312.281.468.53.468.39 0 .469-.265.469-.593l-.016-.202v-.11l.203-.093a.385.385 0 00.218-.359c0-.265-.202-.53-.468-.484a6.045 6.045 0 01-.03-.53l-.094-1.06c0-.172-.016-.36-.032-.531zm-3.884 3.073c-.374-.234-.296-.374-.203-.764.172-.796.92-1.7 1.779-1.7.873 0 1.31 1.2 1.42 1.902-.453.172-2.013.702-2.481.702a.92.92 0 01-.515-.14zm6.893-6.989c.094-.78.219-1.575.36-2.34.046-.25-.157-.421-.36-.421-.124 0-.25.078-.28.25a39.569 39.569 0 00-.484 2.59l-1.31.186c-.203.032-.297.172-.297.328 0 .234.203.5.515.452.312-.062.64-.078.952-.109a26.65 26.65 0 00-.234 4.04c.015.937.109 2.075.951 2.668.203.156.421.219.624.219.484 0 .874-.375.952-.952.031-.28-.219-.452-.468-.452-.203 0-.39.109-.437.327 0 .047-.031.063-.047.063-.093 0-.296-.25-.312-.266-.109-.171-.171-.405-.218-.592-.078-.375-.094-.765-.11-1.155a30.842 30.842 0 010-2.402c.032-.5.063-1.014.11-1.513.593 0 1.185.03 1.778.062.328.016.484-.218.484-.468s-.156-.515-.484-.53a10.128 10.128 0 00-1.685.015z"/>
        <path d="M219.443 258.678c0-.749-.405-1.56-1.232-1.56-.562 0-1.139.406-1.513.764-.905.874-1.81 2.559-1.81 3.994 0 1.373.952 2.45 2.387 2.45.718 0 1.45-.297 1.966-.874.218-.25.03-.656-.266-.656a.3.3 0 00-.187.063c-.452.265-.998.499-1.497.499-.468 0-.905-.203-1.202-.733-.171-.297-.218-.671-.171-1.061.156.047.312.062.483.062 1.389 0 3.042-1.513 3.042-2.948zm-1.466-.67c.89-.141.718.67.562 1.122-.266.843-1.482 1.794-2.434 1.545.187-.687.78-1.763 1.295-2.231.14-.14.359-.39.577-.437zm3.836 2.105c-.234-.187-.593-.421-.764-.686-.375-.609.078-.967.546-1.248.359-.219.92-.437 1.42-.437.358 0 .701.125.904.468a.37.37 0 00.328.203c.265 0 .53-.297.359-.593-.344-.624-1.03-.89-1.763-.89-1.342 0-2.855.874-2.855 2.122v.125c.11 1.077 1.576 1.935 2.387 2.465.405.265 1.607.827 1.341 1.466a.494.494 0 01-.499.344c-.561 0-1.373-.593-1.622-.812a.438.438 0 00-.297-.109c-.28 0-.546.297-.374.624.406.733 1.342 1.248 2.215 1.248.858 0 1.545-.53 1.545-1.45 0-.188-.047-.39-.125-.578-.437-1.076-1.888-1.56-2.746-2.262zm7.803.39c-1.497-.468.858-1.295 1.217-1.388.437-.11.359-.858-.11-.811-.467.046-2.526.187-1.668-.78.483-.546 1.544-.624 2.184-.39.374.14.53-.453.171-.593-1.076-.406-2.948-.203-3.37 1.092a1.19 1.19 0 00-.062.374c0 .53.437.827.967.983-.561.374-.936.905-.64 1.622.469 1.155 2.247.765 3.136.484.219-.078.297-.234.297-.406 0-.234-.203-.483-.515-.42-.437.108-1.17.374-1.607.233zm.796-6.458c.015-.219-.187-.328-.359-.328-.156 0-.28.078-.312.234a7.755 7.755 0 00-.047 1.7c.031.437.702.437.687 0-.047-.53-.016-1.076.03-1.606zm-.593 8.034c-.094.67-.094 1.326.094 1.997.062.187.202.265.343.265.218-.016.452-.187.39-.468-.125-.562-.203-1.139-.156-1.7.015-.375-.609-.469-.671-.094zm10.041-4.306c.063-.515-.748-.593-.873-.125-.265.983-.437 1.982-.64 2.98-.156.686-.358 2.496-1.2 2.636-.406.063-.469-.093-.672-.452a4.398 4.398 0 01-.296-.749 7.4 7.4 0 01-.25-1.56c-.062-1.03 0-2.09.14-3.12a.407.407 0 00-.405-.452c-.14 0-.265.078-.296.265-.14 1.076-.343 2.137-.343 3.214 0 .312.015.624.062.951.125 1.014.5 2.73 1.7 2.964.094.031.188.031.281.031.952 0 1.482-.982 1.763-1.81.125.5.328.968.593 1.436.28.468.936.187.936-.265a.494.494 0 00-.063-.25c-.92-1.778-.655-3.79-.436-5.694zm2.882 2.34c-.234-.187-.593-.421-.765-.686-.374-.609.078-.967.546-1.248.36-.219.92-.437 1.42-.437.359 0 .702.125.905.468a.37.37 0 00.327.203c.266 0 .53-.297.36-.593-.344-.624-1.03-.89-1.764-.89-1.341 0-2.854.874-2.854 2.122v.125c.109 1.077 1.575 1.935 2.386 2.465.406.265 1.607.827 1.342 1.466a.494.494 0 01-.5.344c-.56 0-1.372-.593-1.622-.812a.438.438 0 00-.296-.109c-.28 0-.546.297-.374.624.405.733 1.341 1.248 2.215 1.248.858 0 1.544-.53 1.544-1.45 0-.188-.047-.39-.125-.578-.436-1.076-1.887-1.56-2.745-2.262zm7.982-1.435c0-.749-.406-1.56-1.232-1.56-.562 0-1.14.406-1.514.764-.904.874-1.81 2.559-1.81 3.994 0 1.373.952 2.45 2.388 2.45.717 0 1.45-.297 1.965-.874.219-.25.031-.656-.265-.656a.3.3 0 00-.187.063c-.453.265-.999.499-1.498.499-.468 0-.905-.203-1.201-.733-.172-.297-.218-.671-.172-1.061.156.047.312.062.484.062 1.388 0 3.042-1.513 3.042-2.948zm-1.466-.67c.889-.141.717.67.561 1.122-.265.843-1.482 1.794-2.433 1.545.187-.687.78-1.763 1.294-2.231.14-.14.36-.39.578-.437zm3.836 2.105c-.234-.187-.593-.421-.765-.686-.374-.609.078-.967.546-1.248.36-.219.92-.437 1.42-.437.359 0 .702.125.905.468a.37.37 0 00.327.203c.266 0 .53-.297.36-.593-.344-.624-1.03-.89-1.764-.89-1.341 0-2.854.874-2.854 2.122v.125c.109 1.077 1.575 1.935 2.386 2.465.406.265 1.607.827 1.342 1.466a.494.494 0 01-.5.344c-.56 0-1.372-.593-1.622-.812a.438.438 0 00-.296-.109c-.28 0-.546.297-.374.624.405.733 1.341 1.248 2.215 1.248.858 0 1.544-.53 1.544-1.45 0-.188-.047-.39-.125-.578-.436-1.076-1.887-1.56-2.745-2.262zm6.415-2.73c-.125 1.201-.219 2.45-.219 3.682 0 .998.063 1.981.219 2.948a.396.396 0 00.39.312c.234 0 .468-.156.468-.437-.032-2.184-.203-4.32-.047-6.505.03-.515-.75-.499-.811 0zm.81-2.761a.679.679 0 01-.108-.094.645.645 0 00-.297-.078h-.015a.48.48 0 00-.203.047.644.644 0 00-.187.125.374.374 0 00-.11.187.498.498 0 00-.046.219c0 .046.015.093.015.14.031.11.078.187.14.265.047.016.079.047.125.078a.452.452 0 00.281.078.498.498 0 00.219-.047.374.374 0 00.187-.109.586.586 0 00.109-.187.314.314 0 00.062-.203v-.015c-.015-.047-.015-.11-.03-.156-.016-.094-.079-.172-.141-.25zm3.6 2.574c-1.046.062-1.623 1.622-1.826 2.48-.015.032-.015.063-.03.11a28.56 28.56 0 01-.094-1.607c0-.234-.172-.343-.344-.343-.187 0-.358.109-.358.343.03 1.997.25 3.915.764 5.865.062.203.218.297.374.297a.467.467 0 00.453-.53 11.812 11.812 0 01-.078-3.058c.078-.671.374-2.574 1.232-2.59 1.638-.062 1.092 4.961 1.201 5.96.016.249.25.405.453.405.156 0 .296-.094.343-.296a8.583 8.583 0 00.172-1.81c0-.952-.11-1.934-.25-2.824-.14-1.107-.733-2.402-2.012-2.402zm4.638 2.917c-.234-.187-.593-.421-.764-.686-.375-.609.078-.967.546-1.248.359-.219.92-.437 1.42-.437.358 0 .701.125.904.468a.37.37 0 00.328.203c.265 0 .53-.297.359-.593-.344-.624-1.03-.89-1.763-.89-1.342 0-2.855.874-2.855 2.122v.125c.11 1.077 1.576 1.935 2.387 2.465.405.265 1.607.827 1.341 1.466a.494.494 0 01-.499.344c-.561 0-1.373-.593-1.622-.812a.438.438 0 00-.297-.109c-.28 0-.546.297-.374.624.406.733 1.342 1.248 2.215 1.248.858 0 1.545-.53 1.545-1.45 0-.188-.047-.39-.125-.578-.437-1.076-1.888-1.56-2.746-2.262zm5.798-3.666c.094-.78.219-1.575.36-2.34.046-.25-.157-.421-.36-.421-.124 0-.25.078-.28.25a39.569 39.569 0 00-.484 2.59l-1.31.186c-.203.032-.297.172-.297.328 0 .234.203.5.515.452.312-.062.64-.078.952-.109a26.65 26.65 0 00-.234 4.04c.015.937.109 2.075.951 2.668.203.156.421.219.624.219.484 0 .874-.375.952-.952.03-.28-.219-.452-.468-.452-.203 0-.39.109-.437.327 0 .047-.031.063-.047.063-.093 0-.296-.25-.312-.266-.11-.171-.171-.405-.218-.592-.078-.375-.094-.765-.11-1.155a30.842 30.842 0 010-2.402c.032-.5.063-1.014.11-1.513.593 0 1.185.03 1.778.062.328.016.484-.218.484-.468s-.156-.515-.484-.53a10.128 10.128 0 00-1.685.015zm7.191 3.916c-.062-.905-.11-1.997-.53-2.808-.219-.406-.5-.593-.812-.593-.686 0-2.464 1.201-2.995 1.591-.312.25-.125.718.187.718a.378.378 0 00.203-.063 9.346 9.346 0 011.747-1.03c.156-.077.468-.311.656-.311.405 0 .452.842.499 1.154.078.53.125 1.061.156 1.607-.359-.359-.858-.64-1.389-.64-1.497 0-2.839 1.654-2.839 3.105 0 .983.624 1.497 1.545 1.497.733 0 2.074-.452 2.792-.733.016.312.28.468.53.468.39 0 .468-.265.468-.593l-.015-.202v-.11l.203-.093a.385.385 0 00.218-.359c0-.265-.203-.53-.468-.484a6.045 6.045 0 01-.031-.53l-.094-1.06c0-.172-.015-.36-.031-.531zm-3.884 3.073c-.375-.234-.297-.374-.203-.764.171-.796.92-1.7 1.778-1.7.874 0 1.31 1.2 1.42 1.902-.453.172-2.013.702-2.48.702a.92.92 0 01-.515-.14zm7.692-6.24c-1.045.062-1.623 1.622-1.825 2.48-.016.032-.016.063-.032.11a28.56 28.56 0 01-.093-1.607c0-.234-.172-.343-.343-.343-.188 0-.36.109-.36.343.032 1.997.25 3.915.765 5.865.063.203.219.297.375.297a.467.467 0 00.452-.53 11.812 11.812 0 01-.078-3.058c.078-.671.374-2.574 1.232-2.59 1.638-.062 1.092 4.961 1.202 5.96.015.249.25.405.452.405.156 0 .296-.094.343-.296a8.583 8.583 0 00.172-1.81c0-.952-.11-1.934-.25-2.824-.14-1.107-.733-2.402-2.012-2.402zm4.732 6.115c-1.06-.109-.998-1.763-.842-2.511a7.917 7.917 0 01.795-2.122c.187-.328.406-.811.733-1.014.671-.421.936.359 1.014.874.078.499.796.327.796-.14v-.063c-.125-.858-.686-1.732-1.498-1.732-.218 0-.468.078-.733.25-1.107.702-1.794 2.465-2.06 3.697a5.16 5.16 0 00-.124 1.123c0 .967.297 1.981 1.17 2.45.234.14.5.202.749.202.858 0 1.732-.64 2.262-1.232.39-.468-.28-1.155-.686-.687-.36.406-.999.968-1.576.905zm7.462-4.633c0-.749-.406-1.56-1.232-1.56-.562 0-1.14.406-1.514.764-.904.874-1.81 2.559-1.81 3.994 0 1.373.952 2.45 2.388 2.45.717 0 1.45-.297 1.965-.874.219-.25.031-.656-.265-.656a.3.3 0 00-.187.063c-.453.265-.999.499-1.498.499-.468 0-.905-.203-1.201-.733-.172-.297-.218-.671-.172-1.061.156.047.312.062.484.062 1.388 0 3.042-1.513 3.042-2.948zm-1.466-.67c.889-.141.717.67.561 1.122-.265.843-1.482 1.794-2.433 1.545.187-.687.78-1.763 1.294-2.231.14-.14.36-.39.578-.437zm7.198-.984c-1.825 0-2.434 2.013-2.434 3.51 0 .188.094.328.219.39-.063 1.31.14 2.668 1.294 3.292.281.156.562.218.827.218 1.685 0 2.808-2.667 2.808-4.196 0-1.654-.92-3.214-2.714-3.214zm-.874 6.053c-.764-.858-.686-2.293-.53-3.432.171-.842.561-1.685 1.404-1.685.156 0 .343.032.53.094 1.31.452 1.389 2.06 1.077 3.182-.188.687-.92 2.216-1.779 2.216-.234 0-.468-.11-.702-.375zm6.87-9.485c-.905 0-1.42 1.14-1.591 1.888-.172.718-.25 1.498-.281 2.278l-.78.14c-.203.016-.312.187-.328.374 0 .188.125.39.375.406h.171l.359-.016h.172c0 .063 0 .11-.016.172v.359c-.016.047-.016.109-.016.171-.046 1.545-.046 3.167.266 4.696a.354.354 0 00.39.28c.202 0 .42-.14.42-.39-.046-1.809-.17-3.572-.077-5.366l1.497-.14c.64-.047.624-1.06 0-.983-.468.063-.951.11-1.435.156.063-.686.063-1.435.265-2.09.063-.234.266-.858.515-.952.733-.28.92 1.248.92 1.607 0 .218.157.343.328.343.328 0 .359-.25.359-.515 0-.904-.328-2.262-1.357-2.402-.063-.016-.11-.016-.156-.016z"/>
    </g>
    <path fill="none" d="M346.668 90.216l.112.002-.403 3.794.254 3.805.04 3.802-.664 3.789.31 3.806-.041-.002-.38 4.155-.17 4.165-.024 4.17-.525 4.149.175 4.18.294.024-.978 4.386-.12 4.454-.013 4.463-.625 4.414-.303 4.44.036.004-.591 4.611-.426 4.63-.506 4.622-.355 4.638-.848 4.582.353.057-.755 4.708-.984 4.672-.65 4.725-.634 4.728-1.13 4.648-.377-.076.258 2.506-.984 2.257-.039 2.447-1.012 2.25-.214 2.412-.036-.008-.12 2.445-.953 2.252-.461 2.366-.42 2.376-.718 2.307.213.06-1.519 4.554-1.154 4.657-1.744 4.49-.864 4.738-1.45 4.574.275.1-1.677 4.413-1.54 4.462-2.173 4.23-1.71 4.4-1.298 4.55-.291-.157-1.77 3.898-2.096 3.72-1.62 3.98-2.435 3.537-1.95 3.8-.147-.11-2.29 3.568-2.918 3.098-2.471 3.432-2.036 3.758-2.812 3.177" stroke="#383838" stroke-width="1.2" stroke-dasharray="7,7"/>
    <path d="M339.738 85.296l1.858-4.742 1.705-4.793 1.205-4.961 1.898-4.728-.03-.01 1.602 4.735 1.75 4.79 1.85 4.825 1.5 4.699 1.992 4.877.002.221-3.365-.437-3.358.209-3.357.288-3.363-.171-3.36.07.08.027zM236.46 382.368l.285.178-7.337 9.836-5.665 10.881-6.21 10.541-7.999 9.42-5.522 10.972m29.548-60.161l4.124-2.985 4.024-3.11 3.694-3.524 4.15-2.952-.03-.007-1.26 4.928-1.106 4.962-1 4.986-1.367 4.903-.853 5.02.117.188-3.1-2.185-2.757-1.637-2.715-1.57-2.958-1.958-2.831-1.754.052.066zm64.064 7.745l.284.18 5.817 9.948 7.48 11.004 6.939 10.66 5.157 9.529 7.623 11.095" fill="none" stroke="#383838" stroke-width="1.2"/>
    <path d="M289.166 381.231l-.92-4.896-1.077-4.932-1.59-5.053-.879-4.886-.02-.024 3.908 3.039 4.004 3.162 4.072 3.248 3.84 2.953 4.164 3.366.119.187-3.091 1.403-2.744 1.948-2.702 2.015-2.948 1.628-2.818 1.831.082.02z" fill="none" stroke="#383838" stroke-width="1.2"/>
</svg>
